<svg viewBox="0 0 14 22" xmlns="http://www.w3.org/2000/svg" id="icon-ok">
	<path d="M6.99968 3.32798C8.2965 3.32798 9.35114 4.38262 9.35114 5.67944C9.35114 6.97235 8.2965 8.02699 6.99968 8.02699C5.70286 8.02699 4.64822 6.97235 4.64822 5.67944C4.64822 4.38262 5.70286 3.32798 6.99968 3.32798ZM6.99968 11.355C10.1324 11.355 12.6791 8.8082 12.6791 5.67944C12.6791 2.54676 10.1324 0 6.99968 0C3.86701 0 1.32415 2.54676 1.32415 5.67944C1.32415 8.8082 3.86701 11.355 6.99968 11.355ZM9.29645 15.9876C10.4527 15.722 11.5659 15.2649 12.5932 14.6204C13.3705 14.1322 13.6049 13.1049 13.1166 12.3276C12.6244 11.5464 11.601 11.312 10.8198 11.8042C8.49571 13.265 5.50365 13.265 3.17563 11.8042C2.39832 11.312 1.37102 11.5464 0.882765 12.3276C0.394504 13.1049 0.628868 14.1322 1.40618 14.6204C2.43348 15.2649 3.54671 15.722 4.70291 15.9876L1.52727 19.1593C0.878857 19.8077 0.878857 20.8624 1.52727 21.5108C1.85538 21.835 2.27723 21.999 2.703 21.999C3.12876 21.999 3.55452 21.835 3.88263 21.5108L6.99968 18.3937L10.1206 21.5108C10.769 22.1631 11.8198 22.1631 12.4721 21.5108C13.1205 20.8624 13.1205 19.8077 12.4721 19.1593L9.29645 15.9876Z" />
</svg>
