<svg viewBox="0 0 22 18" xmlns="http://www.w3.org/2000/svg" id="icon-eye">
	<path d="M11.001 12C12.6578 12 14.001 10.6569 14.001 9C14.001 7.34315 12.6578 6 11.001 6C9.34412 6 8.00098 7.34315 8.00098 9C8.00098 10.6569 9.34412 12 11.001 12Z" />
	<path fill-rule="evenodd" clip-rule="evenodd" d="M0.324388 8.4467C1.81164 3.97571 6.02889 0.75 11.0015 0.75C15.9718 0.75 20.1874 3.97271 21.6765 8.44045C21.7969 8.80152 21.797 9.19217 21.6769 9.55331C20.1896 14.0243 15.9723 17.25 10.9997 17.25C6.02945 17.25 1.81381 14.0273 0.324715 9.55955C0.204374 9.19849 0.204259 8.80783 0.324388 8.4467ZM16.251 9C16.251 11.8995 13.9005 14.25 11.001 14.25C8.10148 14.25 5.75098 11.8995 5.75098 9C5.75098 6.1005 8.10148 3.75 11.001 3.75C13.9005 3.75 16.251 6.1005 16.251 9Z" />
</svg>
