<svg viewBox="0 0 17 22" xmlns="http://www.w3.org/2000/svg" id="icon-mark">
<path d="M8.5 0C3.80192 0 0 3.93862 0 8.80563C0 11.2391 0.950479 13.4335 2.48482 15.023C4.01917 16.6125 7.64457 18.9194 7.86182 21.3389C7.88898 21.7046 8.14697 22 8.5 22C8.85303 22 9.11102 21.7046 9.13818 21.3389C9.35543 18.9194 12.9673 16.6125 14.5152 15.023C16.0495 13.4335 17 11.2251 17 8.80563C17 3.93862 13.1981 0 8.5 0ZM8.5 11.8862C6.85703 11.8862 5.52636 10.5077 5.52636 8.80563C5.52636 7.10358 6.85703 5.72506 8.5 5.72506C10.143 5.72506 11.4736 7.10358 11.4736 8.80563C11.4736 10.5077 10.143 11.8862 8.5 11.8862Z" />
</svg>
