<svg viewBox="0 0 24 24" xmlns="http://www.w3.org/2000/svg" id="icon-vk">
	<path d="M2 6.00007H5.25174C5.35855 11.96 7.75576 14.4845 9.6546 15.0051V6H12.7164V11.1401C14.5915 10.9189 16.5615 8.57658 17.2261 6H20.2879C20.0374 7.33626 19.5382 8.60148 18.8215 9.71654C18.1047 10.8316 17.1859 11.7725 16.1224 12.4805C17.3098 13.1269 18.3586 14.0422 19.1995 15.1661C20.0403 16.29 20.654 17.5967 21 19H17.6296C17.3191 17.7811 16.6871 16.6899 15.813 15.8634C14.9389 15.0369 13.8616 14.5119 12.7164 14.3544V19H12.3485C5.85699 19 2.1543 14.1201 2 6V6.00007Z" />
</svg>
