<svg viewBox="0 0 20 20" xmlns="http://www.w3.org/2000/svg" id="icon-ticket">
	<path fill-rule="evenodd" clip-rule="evenodd" d="M6.16147 0.580761C6.68934 0.316829 7.31066 0.31683 7.83853 0.580761L12.8323 3.07765C12.9379 3.13043 13.0621 3.13043 13.1677 3.07765L17.0365 1.14326C18.2832 0.519916 19.75 1.42647 19.75 2.82031V15.3047C19.75 16.0149 19.3487 16.6642 18.7135 16.9818L13.8385 19.4193C13.3107 19.6832 12.6893 19.6832 12.1615 19.4193L7.16771 16.9224C7.06213 16.8696 6.93787 16.8696 6.8323 16.9224L2.96353 18.8568C1.71683 19.4801 0.25 18.5736 0.25 17.1797V4.69531C0.25 3.98512 0.651254 3.33587 1.28647 3.01826L6.16147 0.580761ZM7 4.00002C7.41421 4.00002 7.75 4.3358 7.75 4.75002V13C7.75 13.4142 7.41421 13.75 7 13.75C6.58579 13.75 6.25 13.4142 6.25 13V4.75002C6.25 4.3358 6.58579 4.00002 7 4.00002ZM13.75 7.00002C13.75 6.5858 13.4142 6.25002 13 6.25002C12.5858 6.25002 12.25 6.5858 12.25 7.00002V15.25C12.25 15.6642 12.5858 16 13 16C13.4142 16 13.75 15.6642 13.75 15.25V7.00002Z" />
</svg>
