<svg width="1397" height="516" viewBox="0 0 1397 516" fill="none" xmlns="http://www.w3.org/2000/svg">
<path opacity="0.3" d="M56.4993 380.001L57.1664 379.256L56.4993 380.001ZM433.999 147.001L434.974 147.224L433.999 147.001ZM784.499 439.001L785.486 439.165C785.488 439.15 785.49 439.135 785.492 439.12L784.499 439.001ZM1325.5 504.501L1326.15 503.744L1325.5 504.501ZM1780 139L1779.98 138.001C1779.98 138.001 1779.97 138.001 1779.96 138.001L1780 139ZM2075 433L2075.95 432.685L2075 433ZM2496.5 96.5003L2495.57 96.1427C2495.54 96.212 2495.52 96.284 2495.51 96.3574L2496.5 96.5003ZM2712.1 26.9174C2712.61 27.1378 2713.2 26.9059 2713.42 26.3995C2713.64 25.8931 2713.4 25.3039 2712.9 25.0835L2712.1 26.9174ZM77.435 35.4867C77.1388 35.9529 77.2766 36.5709 77.7427 36.8671C78.2088 37.1633 78.8268 37.0255 79.123 36.5594L77.435 35.4867ZM72.8051 46.6804C73.0937 46.2095 72.946 45.5939 72.4752 45.3052C72.0043 45.0166 71.3886 45.1643 71.1 45.6352L72.8051 46.6804ZM64.9325 55.8867C64.6518 56.3623 64.8098 56.9755 65.2855 57.2562C65.7611 57.5369 66.3742 57.3788 66.6549 56.9032L64.9325 55.8867ZM60.6812 67.2285C60.9536 66.7481 60.7849 66.1378 60.3044 65.8654C59.824 65.5931 59.2137 65.7618 58.9413 66.2422L60.6812 67.2285ZM53.136 76.7028C52.8724 77.1882 53.0522 77.7953 53.5376 78.0588C54.0229 78.3224 54.63 78.1426 54.8936 77.6572L53.136 76.7028ZM49.3028 88.1903C49.557 87.7 49.3656 87.0964 48.8753 86.8422C48.385 86.588 47.7815 86.7794 47.5273 87.2697L49.3028 88.1903ZM42.1266 97.9457C41.8824 98.441 42.0859 99.0406 42.5812 99.2848C43.0765 99.5291 43.6761 99.3256 43.9204 98.8303L42.1266 97.9457ZM38.7586 109.581C38.9923 109.081 38.7761 108.486 38.2756 108.252C37.7752 108.018 37.1801 108.234 36.9464 108.735L38.7586 109.581ZM32.0032 119.637C31.7809 120.142 32.0105 120.732 32.516 120.954C33.0216 121.177 33.6117 120.947 33.834 120.442L32.0032 119.637ZM29.1638 131.413C29.374 130.902 29.1303 130.317 28.6195 130.107C28.1088 129.897 27.5244 130.141 27.3143 130.652L29.1638 131.413ZM22.899 141.781C22.702 142.297 22.9606 142.874 23.4765 143.072C23.9925 143.269 24.5705 143.01 24.7675 142.494L22.899 141.781ZM20.6665 153.686C20.8493 153.165 20.5751 152.594 20.0539 152.411C19.5328 152.228 18.9621 152.503 18.7793 153.024L20.6665 153.686ZM14.9794 164.381C14.8119 164.907 15.1028 165.47 15.6291 165.637C16.1554 165.804 16.7178 165.513 16.8852 164.987L14.9794 164.381ZM13.4507 176.396C13.6014 175.865 13.2929 175.312 12.7615 175.161C12.2302 175.01 11.6773 175.319 11.5266 175.85L13.4507 176.396ZM8.45155 187.428C8.31902 187.964 8.64622 188.506 9.18236 188.639C9.71851 188.772 10.2606 188.444 10.3931 187.908L8.45155 187.428ZM7.74625 199.518C7.85893 198.978 7.51198 198.448 6.97131 198.335C6.43064 198.223 5.901 198.57 5.78832 199.11L7.74625 199.518ZM3.57473 210.889C3.48372 211.433 3.85154 211.949 4.39628 212.04C4.94101 212.131 5.45638 211.763 5.54739 211.218L3.57473 210.889ZM3.83751 222.995C3.90485 222.447 3.51506 221.948 2.96689 221.881C2.41873 221.814 1.91977 222.203 1.85243 222.751L3.83751 222.995ZM0.666713 234.683C0.625197 235.233 1.03799 235.714 1.58871 235.755C2.13944 235.797 2.61954 235.384 2.66105 234.833L0.666713 234.683ZM2.06542 246.709C2.07884 246.157 1.64214 245.699 1.09001 245.685C0.537892 245.672 0.0794317 246.109 0.0660142 246.661L2.06542 246.709ZM0.100929 258.657C0.11795 259.209 0.579251 259.643 1.13127 259.626C1.6833 259.609 2.117 259.147 2.09998 258.595L0.100929 258.657ZM2.81446 270.454C2.76468 269.904 2.27844 269.499 1.7284 269.549C1.17836 269.598 0.772821 270.085 0.822595 270.635L2.81446 270.454ZM2.28036 282.549C2.36504 283.095 2.87611 283.469 3.42187 283.384C3.96762 283.3 4.34139 282.789 4.25671 282.243L2.28036 282.549ZM6.46991 293.909C6.34848 293.37 5.81328 293.032 5.27451 293.153C4.73574 293.275 4.39742 293.81 4.51885 294.348L6.46991 293.909ZM7.57347 305.968C7.73297 306.497 8.29091 306.796 8.81966 306.637C9.34841 306.477 9.64774 305.919 9.48824 305.391L7.57347 305.968ZM13.3314 316.617C13.1332 316.101 12.5546 315.844 12.0391 316.042C11.5236 316.24 11.2664 316.819 11.4646 317.335L13.3314 316.617ZM16.1971 328.377C16.4338 328.876 17.0302 329.088 17.5292 328.851C18.0281 328.615 18.2408 328.018 18.0041 327.519L16.1971 328.377ZM23.4931 338.033C23.2189 337.553 22.6081 337.387 22.1286 337.661C21.6492 337.935 21.4827 338.546 21.7568 339.025L23.4931 338.033ZM28.1112 349.219C28.4209 349.677 29.0426 349.796 29.4999 349.487C29.9573 349.177 30.0769 348.555 29.7673 348.098L28.1112 349.219ZM36.7793 357.666C36.4367 357.233 35.8078 357.16 35.3747 357.502C34.9415 357.845 34.8681 358.474 35.2107 358.907L36.7793 357.666ZM42.9929 368.052C43.3654 368.46 43.9979 368.489 44.4056 368.116C44.8134 367.743 44.8419 367.111 44.4693 366.703L42.9929 368.052ZM52.7698 375.188C52.3706 374.806 51.7376 374.82 51.3559 375.22C50.9743 375.619 50.9885 376.252 51.3877 376.633L52.7698 375.188ZM60.5247 384.832C60.9463 385.189 61.5773 385.136 61.9341 384.715C62.2908 384.293 62.2383 383.662 61.8167 383.305L60.5247 384.832ZM71.2623 390.843C70.8207 390.512 70.1938 390.601 69.8622 391.042C69.5305 391.484 69.6197 392.111 70.0613 392.442L71.2623 390.843ZM80.1181 399.518C80.5796 399.821 81.1997 399.693 81.503 399.231C81.8063 398.77 81.678 398.15 81.2165 397.847L80.1181 399.518ZM91.594 404.187C91.1133 403.915 90.5032 404.084 90.2313 404.565C89.9594 405.045 90.1286 405.656 90.6093 405.927L91.594 404.187ZM101.488 411.591C101.987 411.829 102.583 411.617 102.821 411.118C103.059 410.62 102.847 410.023 102.348 409.785L101.488 411.591ZM113.462 414.592C112.947 414.392 112.367 414.647 112.167 415.161C111.966 415.676 112.221 416.256 112.736 416.456L113.462 414.592ZM124.318 420.471C124.847 420.631 125.405 420.334 125.566 419.805C125.727 419.277 125.429 418.718 124.901 418.557L124.318 420.471ZM136.649 421.642C136.11 421.523 135.576 421.863 135.456 422.403C135.337 422.942 135.677 423.476 136.217 423.595L136.649 421.642ZM148.307 425.779C148.854 425.856 149.359 425.475 149.436 424.928C149.513 424.381 149.132 423.875 148.585 423.799L148.307 425.779ZM160.646 425.015C160.095 424.981 159.62 425.4 159.586 425.951C159.552 426.502 159.971 426.977 160.523 427.011L160.646 425.015ZM172.795 427.294C173.347 427.286 173.788 426.832 173.78 426.279C173.771 425.727 173.317 425.286 172.765 425.295L172.795 427.294ZM184.876 424.657C184.326 424.706 183.92 425.192 183.97 425.742C184.019 426.292 184.505 426.698 185.055 426.649L184.876 424.657ZM197.24 425.106C197.785 425.017 198.155 424.503 198.066 423.958C197.978 423.413 197.464 423.043 196.918 423.132L197.24 425.106ZM208.826 420.764C208.289 420.89 207.955 421.428 208.081 421.966C208.207 422.503 208.745 422.837 209.283 422.711L208.826 420.764ZM221.12 419.52C221.648 419.359 221.946 418.8 221.785 418.272C221.624 417.743 221.065 417.446 220.537 417.606L221.12 419.52ZM232.029 413.71C231.512 413.904 231.249 414.48 231.442 414.997C231.636 415.514 232.212 415.777 232.729 415.584L232.029 413.71ZM244.086 410.957C244.591 410.734 244.82 410.144 244.597 409.638C244.373 409.133 243.783 408.904 243.278 409.127L244.086 410.957ZM254.263 403.908C253.771 404.159 253.575 404.761 253.825 405.253C254.076 405.745 254.678 405.941 255.17 405.69L254.263 403.908ZM265.968 399.833C266.447 399.557 266.611 398.946 266.335 398.467C266.06 397.989 265.448 397.824 264.97 398.1L265.968 399.833ZM275.328 391.786C274.864 392.085 274.729 392.704 275.028 393.168C275.327 393.633 275.945 393.767 276.41 393.468L275.328 391.786ZM286.548 386.608C286.999 386.288 287.104 385.664 286.784 385.214C286.465 384.764 285.84 384.658 285.39 384.978L286.548 386.608ZM295.154 377.711C294.718 378.05 294.64 378.678 294.979 379.114C295.318 379.55 295.946 379.628 296.382 379.289L295.154 377.711ZM305.911 371.542C306.332 371.185 306.384 370.554 306.027 370.133C305.669 369.712 305.038 369.66 304.617 370.017L305.911 371.542ZM313.719 361.982C313.313 362.356 313.286 362.988 313.659 363.395C314.033 363.802 314.665 363.829 315.072 363.456L313.719 361.982ZM323.925 355.01C324.318 354.622 324.321 353.989 323.932 353.596C323.544 353.204 322.911 353.201 322.518 353.589L323.925 355.01ZM331.021 344.856C330.643 345.258 330.663 345.891 331.065 346.269C331.468 346.647 332.101 346.627 332.479 346.225L331.021 344.856ZM340.706 337.149C341.07 336.734 341.028 336.102 340.613 335.738C340.197 335.374 339.565 335.416 339.202 335.832L340.706 337.149ZM347.052 326.556C346.702 326.983 346.765 327.613 347.193 327.963C347.62 328.313 348.25 328.25 348.6 327.822L347.052 326.556ZM356.201 318.215C356.537 317.777 356.453 317.149 356.015 316.813C355.576 316.478 354.949 316.561 354.613 317L356.201 318.215ZM361.871 307.199C361.549 307.648 361.652 308.273 362.101 308.595C362.55 308.917 363.175 308.813 363.496 308.364L361.871 307.199ZM370.457 298.33C370.765 297.872 370.643 297.25 370.184 296.942C369.726 296.635 369.105 296.757 368.797 297.215L370.457 298.33ZM375.439 286.996C375.145 287.464 375.285 288.081 375.753 288.375C376.22 288.669 376.838 288.529 377.132 288.061L375.439 286.996ZM383.503 277.597C383.783 277.122 383.625 276.509 383.149 276.228C382.673 275.948 382.06 276.106 381.78 276.582L383.503 277.597ZM387.801 266.02C387.534 266.504 387.71 267.112 388.194 267.379C388.677 267.646 389.286 267.47 389.552 266.986L387.801 266.02ZM395.317 256.177C395.57 255.686 395.377 255.083 394.887 254.83C394.396 254.577 393.793 254.77 393.539 255.261L395.317 256.177ZM398.971 244.358C398.731 244.856 398.941 245.453 399.438 245.693C399.936 245.932 400.534 245.723 400.773 245.225L398.971 244.358ZM405.923 234.14C406.149 233.636 405.923 233.044 405.419 232.819C404.915 232.593 404.324 232.818 404.098 233.322L405.923 234.14ZM408.94 222.118C408.727 222.628 408.969 223.214 409.478 223.426C409.988 223.638 410.574 223.397 410.786 222.887L408.94 222.118ZM415.331 211.549C415.53 211.034 415.273 210.455 414.758 210.256C414.243 210.058 413.664 210.314 413.465 210.829L415.331 211.549ZM417.699 199.405C417.514 199.926 417.785 200.498 418.306 200.683C418.826 200.868 419.398 200.596 419.583 200.076L417.699 199.405ZM423.537 188.483C423.708 187.958 423.422 187.393 422.897 187.222C422.372 187.05 421.807 187.337 421.636 187.862L423.537 188.483ZM425.262 176.252C425.104 176.781 425.405 177.338 425.934 177.496C426.464 177.654 427.021 177.352 427.178 176.823L425.262 176.252ZM430.527 165.038C430.671 164.505 430.356 163.956 429.822 163.812C429.289 163.667 428.74 163.983 428.596 164.516L430.527 165.038ZM431.62 152.728C431.489 153.265 431.819 153.806 432.355 153.936C432.892 154.066 433.433 153.737 433.563 153.2L431.62 152.728ZM436.407 141.325C436.545 140.79 436.222 140.245 435.688 140.108C435.153 139.97 434.608 140.293 434.47 140.828L436.407 141.325ZM437.772 129.247C437.607 129.774 437.9 130.335 438.426 130.501C438.953 130.666 439.515 130.373 439.68 129.846L437.772 129.247ZM443.586 118.503C443.78 117.986 443.518 117.41 443.001 117.216C442.484 117.022 441.908 117.283 441.714 117.8L443.586 118.503ZM446.24 106.7C446.017 107.205 446.246 107.796 446.751 108.018C447.257 108.241 447.847 108.012 448.07 107.507L446.24 106.7ZM453.247 96.6431C453.499 96.1517 453.305 95.549 452.814 95.2968C452.322 95.0446 451.72 95.2384 451.467 95.7298L453.247 96.6431ZM457.284 85.185C457.003 85.6603 457.16 86.2736 457.636 86.5549C458.111 86.8361 458.724 86.6788 459.006 86.2034L457.284 85.185ZM465.408 76.1066C465.718 75.6496 465.599 75.0278 465.142 74.7176C464.685 74.4075 464.063 74.5265 463.753 74.9835L465.408 76.1066ZM470.862 65.1928C470.524 65.6291 470.603 66.2573 471.039 66.596C471.475 66.9346 472.103 66.8555 472.442 66.4192L470.862 65.1928ZM480.044 57.2564C480.411 56.8432 480.373 56.2112 479.959 55.8448C479.546 55.4784 478.914 55.5164 478.548 55.9297L480.044 57.2564ZM486.883 47.1406C486.489 47.5283 486.485 48.1614 486.872 48.5548C487.26 48.9482 487.893 48.9528 488.287 48.5652L486.883 47.1406ZM497.082 40.4743C497.501 40.1147 497.549 39.4834 497.189 39.0642C496.83 38.6451 496.199 38.5968 495.779 38.9564L497.082 40.4743ZM505.197 31.4347C504.753 31.7639 504.661 32.3902 504.99 32.8337C505.319 33.2771 505.945 33.3698 506.389 33.0406L505.197 31.4347ZM516.249 26.2601C516.715 25.964 516.853 25.346 516.557 24.8798C516.261 24.4136 515.643 24.2758 515.177 24.5719L516.249 26.2601ZM525.617 18.4699C525.13 18.7306 524.947 19.3367 525.208 19.8235C525.468 20.3104 526.074 20.4937 526.561 20.233L525.617 18.4699ZM537.276 15.0066C537.781 14.7836 538.01 14.1932 537.787 13.6879C537.564 13.1827 536.973 12.9539 536.468 13.1769L537.276 15.0066ZM547.718 8.72296C547.197 8.90607 546.923 9.47689 547.107 9.99794C547.29 10.519 547.86 10.7929 548.381 10.6098L547.718 8.72296ZM559.793 7.10045C560.326 6.95925 560.645 6.41195 560.504 5.87802C560.362 5.34409 559.815 5.02572 559.281 5.16691L559.793 7.10045ZM571.083 2.54976C570.539 2.64738 570.178 3.16718 570.276 3.71077C570.373 4.25436 570.893 4.61589 571.437 4.51827L571.083 2.54976ZM583.259 2.89185C583.809 2.83917 584.212 2.35079 584.159 1.80103C584.107 1.25126 583.618 0.848293 583.069 0.900974L583.259 2.89185ZM595.143 0.247587C594.59 0.254469 594.148 0.707729 594.155 1.25997C594.162 1.81221 594.615 2.25431 595.168 2.24743L595.143 0.247587ZM607.087 2.59703C607.638 2.6363 608.116 2.22155 608.155 1.67067C608.195 1.11978 607.78 0.641365 607.229 0.602097L607.087 2.59703ZM619.269 1.96986C618.724 1.88458 618.212 2.25779 618.127 2.80345C618.042 3.34911 618.415 3.86059 618.961 3.94587L619.269 1.96986ZM630.639 6.27247C631.176 6.40274 631.717 6.07327 631.847 5.53657C631.977 4.99986 631.648 4.45918 631.111 4.32891L630.639 6.27247ZM642.722 7.6584C642.198 7.48459 641.632 7.76865 641.458 8.29287C641.285 8.81709 641.569 9.38296 642.093 9.55677L642.722 7.6584ZM653.293 13.7815C653.802 13.9971 654.389 13.7595 654.604 13.2511C654.82 12.7426 654.582 12.1556 654.074 11.9401L653.293 13.7815ZM664.983 17.0771C664.493 16.8226 663.889 17.0137 663.634 17.5038C663.38 17.994 663.571 18.5976 664.061 18.8521L664.983 17.0771ZM674.419 24.7391C674.889 25.0297 675.505 24.8847 675.796 24.4151C676.086 23.9455 675.941 23.3292 675.472 23.0385L674.419 24.7391ZM685.584 29.8234C685.136 29.4993 684.511 29.5991 684.187 30.0463C683.863 30.4934 683.963 31.1187 684.41 31.4428L685.584 29.8234ZM693.753 38.7187C694.177 39.0726 694.808 39.0158 695.162 38.5918C695.515 38.1678 695.459 37.5372 695.035 37.1833L693.753 38.7187ZM704.066 45.2437C703.667 44.8627 703.034 44.8781 702.653 45.278C702.272 45.6779 702.287 46.3109 702.687 46.6918L704.066 45.2437ZM711.08 55.201C711.456 55.6058 712.088 55.6295 712.493 55.2539C712.898 54.8783 712.922 54.2456 712.546 53.8407L711.08 55.201ZM720.465 62.8932C720.113 62.4673 719.483 62.407 719.057 62.7586C718.631 63.1101 718.571 63.7404 718.923 64.1663L720.465 62.8932ZM726.327 73.6616C726.654 74.1062 727.28 74.201 727.725 73.8734C728.169 73.5458 728.264 72.9197 727.937 72.4751L726.327 73.6616ZM734.782 82.2807C734.477 81.8201 733.857 81.6936 733.396 81.9983C732.936 82.303 732.809 82.9234 733.114 83.3841L734.782 82.2807ZM739.534 93.6263C739.816 94.1011 740.43 94.2574 740.905 93.9753C741.38 93.6933 741.536 93.0797 741.254 92.6049L739.534 93.6263ZM747.111 102.989C746.851 102.503 746.245 102.319 745.758 102.58C745.271 102.841 745.088 103.447 745.348 103.934L747.111 102.989ZM750.823 114.705C751.063 115.203 751.66 115.411 752.158 115.172C752.655 114.932 752.864 114.334 752.624 113.836L750.823 114.705ZM757.599 124.696C757.379 124.19 756.79 123.958 756.283 124.178C755.777 124.398 755.545 124.987 755.765 125.494L757.599 124.696ZM760.354 136.606C760.555 137.121 761.135 137.374 761.65 137.173C762.164 136.971 762.418 136.391 762.216 135.877L760.354 136.606ZM766.413 147.17C766.23 146.649 765.659 146.376 765.138 146.559C764.617 146.743 764.343 147.314 764.527 147.835L766.413 147.17ZM768.301 159.133C768.468 159.659 769.03 159.951 769.556 159.784C770.083 159.618 770.375 159.056 770.208 158.529L768.301 159.133ZM773.719 170.264C773.569 169.733 773.017 169.424 772.485 169.574C771.954 169.724 771.644 170.277 771.795 170.808L773.719 170.264ZM774.83 182.167C774.965 182.702 775.509 183.027 776.045 182.892C776.58 182.757 776.905 182.213 776.769 181.678L774.83 182.167ZM779.578 193.495C779.458 192.956 778.923 192.616 778.384 192.737C777.845 192.857 777.506 193.392 777.627 193.931L779.578 193.495ZM780.088 205.655C780.194 206.197 780.72 206.55 781.262 206.443C781.804 206.337 782.157 205.811 782.05 205.269L780.088 205.655ZM784.21 216.996C784.117 216.452 783.6 216.086 783.055 216.18C782.511 216.274 782.146 216.791 782.239 217.335L784.21 216.996ZM784.164 229.373C784.245 229.92 784.753 230.297 785.3 230.216C785.846 230.135 786.223 229.627 786.142 229.08L784.164 229.373ZM787.757 240.868C787.688 240.32 787.188 239.932 786.64 240.001C786.092 240.07 785.704 240.57 785.773 241.118L787.757 240.868ZM787.144 252.963C787.202 253.513 787.694 253.911 788.243 253.853C788.792 253.795 789.191 253.303 789.133 252.754L787.144 252.963ZM790.295 264.954C790.248 264.404 789.764 263.996 789.213 264.043C788.663 264.09 788.255 264.574 788.302 265.124L790.295 264.954ZM789.198 276.933C789.235 277.484 789.712 277.901 790.263 277.864C790.814 277.827 791.231 277.351 791.194 276.8L789.198 276.933ZM791.883 288.723C791.856 288.171 791.387 287.746 790.835 287.773C790.284 287.8 789.859 288.269 789.886 288.821L791.883 288.723ZM790.376 300.988C790.394 301.54 790.856 301.973 791.408 301.956C791.96 301.938 792.393 301.477 792.375 300.925L790.376 300.988ZM792.659 312.916C792.65 312.364 792.195 311.923 791.643 311.932C791.091 311.94 790.65 312.395 790.659 312.947L792.659 312.916ZM790.752 324.786C790.752 325.339 791.2 325.786 791.753 325.786C792.305 325.786 792.752 325.338 792.752 324.786L790.752 324.786ZM792.665 336.901C792.673 336.349 792.232 335.895 791.679 335.886C791.127 335.878 790.673 336.319 790.665 336.872L792.665 336.901ZM790.397 349.094C790.38 349.646 790.815 350.106 791.367 350.123C791.919 350.139 792.38 349.704 792.396 349.152L790.397 349.094ZM791.974 360.901C791.998 360.349 791.569 359.883 791.018 359.859C790.466 359.836 789.999 360.264 789.976 360.816L791.974 360.901ZM789.39 372.755C789.359 373.306 789.781 373.778 790.333 373.809C790.884 373.84 791.356 373.417 791.387 372.866L789.39 372.755ZM790.63 385.049C790.668 384.498 790.252 384.021 789.701 383.983C789.15 383.945 788.673 384.362 788.635 384.913L790.63 385.049ZM787.739 396.919C787.695 397.469 788.105 397.952 788.656 397.996C789.206 398.04 789.688 397.63 789.733 397.08L787.739 396.919ZM788.715 408.85C788.766 408.3 788.361 407.813 787.811 407.762C787.261 407.712 786.774 408.116 786.723 408.666L788.715 408.85ZM785.554 420.606C785.497 421.156 785.896 421.647 786.445 421.704C786.995 421.761 787.486 421.362 787.543 420.813L785.554 420.606ZM786.215 432.969C786.278 432.42 785.884 431.924 785.336 431.861C784.787 431.798 784.291 432.192 784.228 432.741L786.215 432.969ZM782.49 445.124C782.404 445.669 782.776 446.181 783.322 446.268C783.867 446.354 784.379 445.982 784.466 445.436L782.49 445.124ZM782.761 457.149C782.831 456.601 782.445 456.1 781.897 456.029C781.349 455.959 780.848 456.345 780.777 456.893L782.761 457.149ZM779.708 468.589C779.694 469.141 780.13 469.6 780.682 469.615C781.234 469.629 781.693 469.193 781.708 468.641L779.708 468.589ZM784.974 471.052C784.647 471.498 784.744 472.124 785.19 472.45C785.635 472.776 786.261 472.68 786.587 472.234L784.974 471.052ZM792.84 461.979C793.107 461.495 792.932 460.887 792.449 460.62C791.965 460.352 791.357 460.527 791.089 461.011L792.84 461.979ZM796.691 450.516C796.436 451.006 796.626 451.61 797.116 451.865C797.606 452.12 798.21 451.93 798.465 451.44L796.691 450.516ZM803.919 440.851C804.171 440.359 803.976 439.756 803.484 439.505C802.992 439.254 802.39 439.448 802.139 439.94L803.919 440.851ZM807.541 429.349C807.29 429.841 807.486 430.443 807.978 430.694C808.47 430.945 809.072 430.749 809.323 430.257L807.541 429.349ZM814.752 419.634C815.004 419.142 814.81 418.54 814.319 418.288C813.827 418.036 813.225 418.23 812.973 418.721L814.752 419.634ZM818.476 408.041C818.222 408.531 818.414 409.135 818.904 409.389C819.394 409.643 819.998 409.452 820.252 408.961L818.476 408.041ZM825.706 398.506C825.963 398.017 825.775 397.412 825.286 397.155C824.797 396.898 824.192 397.086 823.936 397.575L825.706 398.506ZM829.494 387.078C829.234 387.565 829.418 388.171 829.905 388.431C830.392 388.691 830.998 388.507 831.258 388.02L829.494 387.078ZM836.947 377.458C837.211 376.973 837.031 376.366 836.546 376.102C836.061 375.838 835.454 376.018 835.19 376.503L836.947 377.458ZM840.871 366.152C840.603 366.635 840.777 367.244 841.26 367.512C841.744 367.779 842.352 367.605 842.62 367.122L840.871 366.152ZM848.438 356.731C848.71 356.25 848.541 355.64 848.061 355.368C847.58 355.096 846.97 355.265 846.698 355.746L848.438 356.731ZM852.618 345.398C852.342 345.876 852.505 346.488 852.983 346.764C853.461 347.041 854.073 346.877 854.349 346.399L852.618 345.398ZM860.334 336.172C860.616 335.697 860.458 335.084 859.983 334.802C859.508 334.521 858.895 334.678 858.613 335.153L860.334 336.172ZM864.767 324.884C864.481 325.356 864.631 325.971 865.104 326.258C865.576 326.544 866.191 326.394 866.477 325.922L864.767 324.884ZM872.664 315.852C872.955 315.383 872.812 314.767 872.343 314.475C871.874 314.183 871.257 314.327 870.966 314.796L872.664 315.852ZM877.345 304.678C877.048 305.143 877.184 305.762 877.649 306.059C878.115 306.356 878.733 306.22 879.03 305.755L877.345 304.678ZM885.464 295.824C885.768 295.362 885.639 294.742 885.178 294.439C884.716 294.136 884.096 294.264 883.793 294.726L885.464 295.824ZM890.414 284.791C890.104 285.249 890.224 285.87 890.682 286.18C891.139 286.489 891.761 286.369 892.071 285.912L890.414 284.791ZM898.78 276.139C899.096 275.685 898.984 275.062 898.531 274.746C898.078 274.431 897.455 274.542 897.139 274.995L898.78 276.139ZM904.031 265.262C903.708 265.711 903.81 266.335 904.258 266.658C904.707 266.981 905.331 266.879 905.654 266.43L904.031 265.262ZM912.659 256.853C912.988 256.41 912.896 255.783 912.453 255.454C912.01 255.124 911.383 255.216 911.054 255.659L912.659 256.853ZM918.245 246.155C917.908 246.593 917.99 247.22 918.427 247.557C918.865 247.894 919.493 247.813 919.83 247.375L918.245 246.155ZM927.154 238.034C927.499 237.603 927.428 236.973 926.997 236.629C926.565 236.284 925.936 236.354 925.591 236.786L927.154 238.034ZM933.114 227.545C932.761 227.97 932.819 228.6 933.244 228.953C933.669 229.306 934.3 229.247 934.653 228.822L933.114 227.545ZM942.324 219.763C942.685 219.345 942.639 218.714 942.221 218.353C941.803 217.992 941.172 218.038 940.811 218.455L942.324 219.763ZM948.697 209.522C948.328 209.932 948.36 210.565 948.77 210.935C949.18 211.305 949.812 211.272 950.182 210.862L948.697 209.522ZM958.23 202.141C958.61 201.739 958.591 201.106 958.19 200.727C957.788 200.348 957.156 200.366 956.776 200.768L958.23 202.141ZM965.064 192.2C964.675 192.592 964.678 193.225 965.07 193.614C965.462 194.003 966.095 194 966.484 193.608L965.064 192.2ZM974.94 185.292C975.339 184.909 975.353 184.276 974.971 183.878C974.589 183.479 973.956 183.465 973.557 183.847L974.94 185.292ZM982.282 175.715C981.873 176.086 981.842 176.718 982.212 177.128C982.583 177.537 983.216 177.568 983.625 177.197L982.282 175.715ZM992.521 169.37C992.941 169.011 992.991 168.38 992.632 167.96C992.274 167.54 991.643 167.49 991.222 167.848L992.521 169.37ZM1000.42 160.242C999.991 160.587 999.921 161.216 1000.27 161.647C1000.61 162.079 1001.24 162.148 1001.67 161.803L1000.42 160.242ZM1011.04 154.566C1011.48 154.236 1011.57 153.609 1011.24 153.166C1010.91 152.724 1010.28 152.632 1009.84 152.963L1011.04 154.566ZM1019.55 145.993C1019.09 146.306 1018.98 146.929 1019.29 147.384C1019.6 147.838 1020.23 147.952 1020.68 147.639L1019.55 145.993ZM1030.53 141.113C1031 140.817 1031.14 140.199 1030.84 139.733C1030.55 139.266 1029.93 139.128 1029.46 139.424L1030.53 141.113ZM1039.69 133.227C1039.22 133.503 1039.05 134.114 1039.33 134.593C1039.6 135.071 1040.22 135.235 1040.69 134.959L1039.69 133.227ZM1051.06 129.279C1051.55 129.025 1051.74 128.421 1051.49 127.931C1051.23 127.441 1050.63 127.25 1050.14 127.504L1051.06 129.279ZM1060.87 122.247C1060.37 122.478 1060.15 123.072 1060.38 123.574C1060.61 124.075 1061.21 124.295 1061.71 124.064L1060.87 122.247ZM1072.57 119.391C1073.08 119.185 1073.33 118.603 1073.13 118.091C1072.92 117.578 1072.34 117.329 1071.83 117.534L1072.57 119.391ZM1083.03 113.387C1082.51 113.565 1082.23 114.133 1082.41 114.656C1082.58 115.179 1083.15 115.458 1083.67 115.281L1083.03 113.387ZM1095.16 111.73C1095.69 111.582 1096 111.031 1095.86 110.499C1095.71 109.967 1095.16 109.656 1094.62 109.804L1095.16 111.73ZM1106.06 106.995C1105.52 107.109 1105.17 107.64 1105.29 108.18C1105.4 108.721 1105.93 109.066 1106.47 108.951L1106.06 106.995ZM1118.16 106.913C1118.71 106.84 1119.09 106.336 1119.02 105.789C1118.94 105.241 1118.44 104.858 1117.89 104.932L1118.16 106.913ZM1129.63 103.84C1129.08 103.867 1128.65 104.336 1128.68 104.888C1128.71 105.44 1129.18 105.865 1129.73 105.838L1129.63 103.84ZM1141.42 105.837C1141.97 105.866 1142.44 105.442 1142.47 104.89C1142.49 104.338 1142.07 103.868 1141.52 103.84L1141.42 105.837ZM1153.43 105.126C1152.89 105.034 1152.37 105.402 1152.28 105.947C1152.19 106.491 1152.56 107.007 1153.1 107.098L1153.43 105.126ZM1164.46 109.735C1164.99 109.894 1165.55 109.594 1165.71 109.065C1165.87 108.536 1165.57 107.978 1165.04 107.819L1164.46 109.735ZM1176.19 111.989C1175.69 111.762 1175.09 111.985 1174.87 112.489C1174.64 112.992 1174.86 113.584 1175.37 113.812L1176.19 111.989ZM1185.65 119.311C1186.12 119.603 1186.74 119.46 1187.03 118.991C1187.32 118.522 1187.18 117.905 1186.71 117.613L1185.65 119.311ZM1196.43 124.562C1196 124.213 1195.37 124.278 1195.02 124.707C1194.67 125.135 1194.74 125.765 1195.17 126.114L1196.43 124.562ZM1203.79 133.993C1204.18 134.387 1204.81 134.394 1205.21 134.007C1205.6 133.621 1205.61 132.987 1205.22 132.593L1203.79 133.993ZM1213.1 141.494C1212.76 141.064 1212.13 140.995 1211.7 141.341C1211.27 141.687 1211.2 142.316 1211.55 142.747L1213.1 141.494ZM1218.49 152.2C1218.8 152.658 1219.42 152.78 1219.87 152.471C1220.33 152.163 1220.45 151.542 1220.15 151.084L1218.49 152.2ZM1226.43 161.214C1226.16 160.735 1225.55 160.569 1225.07 160.844C1224.59 161.119 1224.42 161.73 1224.7 162.209L1226.43 161.214ZM1230.24 172.601C1230.48 173.096 1231.08 173.298 1231.58 173.053C1232.07 172.807 1232.28 172.207 1232.03 171.713L1230.24 172.601ZM1237.01 182.44C1236.79 181.933 1236.2 181.701 1235.69 181.921C1235.18 182.141 1234.95 182.73 1235.17 183.236L1237.01 182.44ZM1239.63 194.15C1239.82 194.665 1240.4 194.923 1240.92 194.725C1241.43 194.527 1241.69 193.948 1241.49 193.433L1239.63 194.15ZM1245.56 204.64C1245.38 204.118 1244.81 203.839 1244.29 204.018C1243.76 204.197 1243.48 204.766 1243.66 205.288L1245.56 204.64ZM1247.29 216.451C1247.45 216.979 1248.01 217.275 1248.54 217.112C1249.06 216.949 1249.36 216.39 1249.2 215.862L1247.29 216.451ZM1252.53 227.237C1252.38 226.705 1251.83 226.395 1251.3 226.543C1250.77 226.692 1250.46 227.243 1250.61 227.775L1252.53 227.237ZM1253.66 239.223C1253.79 239.758 1254.34 240.081 1254.87 239.945C1255.41 239.809 1255.73 239.264 1255.6 238.729L1253.66 239.223ZM1258.4 250.194C1258.27 249.656 1257.73 249.322 1257.19 249.448C1256.66 249.574 1256.32 250.112 1256.45 250.65L1258.4 250.194ZM1259.05 262.182C1259.16 262.722 1259.7 263.064 1260.24 262.947C1260.78 262.83 1261.12 262.297 1261 261.758L1259.05 262.182ZM1263.43 273.352C1263.32 272.811 1262.79 272.461 1262.25 272.571C1261.71 272.68 1261.36 273.208 1261.47 273.749L1263.43 273.352ZM1263.75 285.333C1263.85 285.876 1264.37 286.232 1264.92 286.128C1265.46 286.025 1265.82 285.501 1265.71 284.959L1263.75 285.333ZM1267.88 296.604C1267.78 296.061 1267.26 295.7 1266.71 295.798C1266.17 295.897 1265.81 296.417 1265.91 296.961L1267.88 296.604ZM1267.97 308.594C1268.06 309.138 1268.58 309.503 1269.13 309.408C1269.67 309.314 1270.04 308.796 1269.94 308.252L1267.97 308.594ZM1271.94 319.921C1271.84 319.376 1271.33 319.009 1270.78 319.101C1270.24 319.193 1269.87 319.708 1269.96 320.253L1271.94 319.921ZM1271.9 331.899C1271.99 332.444 1272.51 332.813 1273.05 332.723C1273.6 332.633 1273.97 332.118 1273.88 331.573L1271.9 331.899ZM1275.8 343.267C1275.71 342.722 1275.19 342.352 1274.65 342.442C1274.1 342.531 1273.73 343.045 1273.82 343.59L1275.8 343.267ZM1275.74 355.256C1275.83 355.801 1276.34 356.17 1276.89 356.081C1277.43 355.991 1277.8 355.477 1277.71 354.932L1275.74 355.256ZM1279.64 366.583C1279.55 366.038 1279.04 365.671 1278.49 365.762C1277.95 365.853 1277.58 366.369 1277.67 366.914L1279.64 366.583ZM1279.66 378.61C1279.75 379.154 1280.27 379.519 1280.82 379.425C1281.36 379.331 1281.72 378.813 1281.63 378.269L1279.66 378.61ZM1283.69 389.879C1283.59 389.335 1283.07 388.975 1282.52 389.073C1281.98 389.172 1281.62 389.692 1281.72 390.236L1283.69 389.879ZM1283.89 401.871C1284 402.414 1284.52 402.768 1285.06 402.664C1285.61 402.559 1285.96 402.035 1285.86 401.492L1283.89 401.871ZM1288.18 413.115C1288.07 412.574 1287.54 412.227 1287 412.34C1286.46 412.452 1286.11 412.982 1286.23 413.523L1288.18 413.115ZM1288.75 425.072C1288.87 425.611 1289.41 425.947 1289.94 425.824C1290.48 425.701 1290.82 425.164 1290.7 424.626L1288.75 425.072ZM1293.45 436.035C1293.32 435.5 1292.77 435.177 1292.24 435.314C1291.7 435.451 1291.38 435.996 1291.52 436.531L1293.45 436.035ZM1294.66 448.041C1294.81 448.571 1295.37 448.876 1295.9 448.721C1296.43 448.567 1296.73 448.012 1296.58 447.481L1294.66 448.041ZM1300.12 458.748C1299.94 458.225 1299.37 457.945 1298.85 458.123C1298.33 458.301 1298.05 458.869 1298.23 459.392L1300.12 458.748ZM1302.36 470.529C1302.57 471.041 1303.16 471.286 1303.67 471.078C1304.18 470.87 1304.42 470.286 1304.22 469.775L1302.36 470.529ZM1309.05 480.459C1308.8 479.966 1308.2 479.769 1307.71 480.018C1307.22 480.267 1307.02 480.868 1307.27 481.361L1309.05 480.459ZM1313.22 491.698C1313.52 492.159 1314.14 492.286 1314.6 491.982C1315.06 491.678 1315.19 491.057 1314.89 490.597L1313.22 491.698ZM1322.04 499.776C1321.66 499.372 1321.03 499.35 1320.63 499.727C1320.22 500.104 1320.2 500.737 1320.58 501.141L1322.04 499.776ZM1329.94 509.239C1330.39 509.555 1331.02 509.444 1331.33 508.991C1331.65 508.538 1331.54 507.914 1331.08 507.598L1329.94 509.239ZM1341.5 512.829C1340.97 512.673 1340.41 512.976 1340.26 513.506C1340.1 514.036 1340.4 514.592 1340.93 514.747L1341.5 512.829ZM1353.42 515.202C1353.96 515.077 1354.29 514.54 1354.17 514.002C1354.05 513.464 1353.51 513.129 1352.97 513.253L1353.42 515.202ZM1363.52 508.093C1363.08 508.423 1362.99 509.05 1363.32 509.492C1363.65 509.935 1364.27 510.026 1364.72 509.696L1363.52 508.093ZM1373.62 501.259C1373.99 500.844 1373.94 500.212 1373.53 499.848C1373.11 499.485 1372.48 499.527 1372.12 499.943L1373.62 501.259ZM1379.47 490.41C1379.16 490.864 1379.27 491.487 1379.72 491.802C1380.18 492.117 1380.8 492.004 1381.12 491.55L1379.47 490.41ZM1387.75 481.239C1388.04 480.766 1387.89 480.151 1387.41 479.866C1386.94 479.581 1386.33 479.733 1386.04 480.206L1387.75 481.239ZM1392.12 469.628C1391.85 470.112 1392.03 470.72 1392.51 470.987C1393 471.253 1393.6 471.077 1393.87 470.594L1392.12 469.628ZM1399.66 459.764C1399.91 459.274 1399.72 458.67 1399.23 458.415C1398.74 458.16 1398.14 458.351 1397.88 458.841L1399.66 459.764ZM1403.37 448.097C1403.12 448.59 1403.32 449.191 1403.82 449.44C1404.31 449.688 1404.91 449.489 1405.16 448.995L1403.37 448.097ZM1410.59 438.095C1410.83 437.599 1410.63 437 1410.13 436.755C1409.64 436.511 1409.04 436.714 1408.79 437.209L1410.59 438.095ZM1414.21 426.203C1413.96 426.699 1414.17 427.298 1414.66 427.542C1415.16 427.785 1415.76 427.581 1416 427.085L1414.21 426.203ZM1421.36 416.183C1421.61 415.688 1421.4 415.088 1420.91 414.844C1420.41 414.6 1419.81 414.803 1419.57 415.299L1421.36 416.183ZM1424.97 404.397C1424.73 404.891 1424.93 405.492 1425.42 405.738C1425.91 405.985 1426.51 405.784 1426.76 405.29L1424.97 404.397ZM1432.28 394.327C1432.53 393.834 1432.33 393.232 1431.84 392.982C1431.35 392.732 1430.74 392.928 1430.49 393.421L1432.28 394.327ZM1436.03 382.646C1435.77 383.136 1435.97 383.74 1436.46 383.994C1436.95 384.249 1437.55 384.059 1437.8 383.568L1436.03 382.646ZM1443.49 372.772C1443.75 372.285 1443.57 371.679 1443.08 371.419C1442.6 371.158 1441.99 371.342 1441.73 371.829L1443.49 372.772ZM1447.55 361.108C1447.29 361.591 1447.46 362.199 1447.95 362.466C1448.43 362.733 1449.04 362.558 1449.3 362.074L1447.55 361.108ZM1455.26 351.476C1455.53 350.997 1455.36 350.386 1454.88 350.112C1454.41 349.838 1453.79 350.004 1453.52 350.483L1455.26 351.476ZM1459.69 339.901C1459.4 340.376 1459.56 340.99 1460.04 341.272C1460.51 341.554 1461.12 341.398 1461.41 340.923L1459.69 339.901ZM1467.69 330.556C1467.98 330.087 1467.84 329.47 1467.37 329.18C1466.9 328.889 1466.28 329.034 1465.99 329.504L1467.69 330.556ZM1472.55 319.139C1472.25 319.603 1472.38 320.222 1472.84 320.522C1473.31 320.822 1473.93 320.689 1474.23 320.225L1472.55 319.139ZM1480.91 310.124C1481.22 309.667 1481.1 309.045 1480.64 308.736C1480.18 308.426 1479.56 308.546 1479.25 309.003L1480.91 310.124ZM1486.23 298.939C1485.91 299.389 1486.02 300.014 1486.47 300.334C1486.92 300.654 1487.54 300.548 1487.86 300.098L1486.23 298.939ZM1495 290.295C1495.33 289.852 1495.24 289.225 1494.8 288.895C1494.36 288.564 1493.73 288.655 1493.4 289.098L1495 290.295ZM1500.84 279.388C1500.5 279.822 1500.58 280.451 1501.01 280.792C1501.45 281.134 1502.07 281.059 1502.42 280.625L1500.84 279.388ZM1510.05 271.19C1510.4 270.766 1510.34 270.135 1509.92 269.782C1509.49 269.429 1508.86 269.487 1508.51 269.912L1510.05 271.19ZM1516.46 260.618C1516.1 261.032 1516.14 261.664 1516.55 262.029C1516.97 262.394 1517.6 262.353 1517.96 261.939L1516.46 260.618ZM1526.11 252.944C1526.49 252.54 1526.47 251.907 1526.06 251.53C1525.66 251.154 1525.03 251.175 1524.65 251.579L1526.11 252.944ZM1533.13 242.767C1532.74 243.159 1532.74 243.793 1533.14 244.182C1533.53 244.571 1534.16 244.568 1534.55 244.176L1533.13 242.767ZM1543.23 235.695C1543.63 235.316 1543.65 234.683 1543.27 234.282C1542.89 233.88 1542.26 233.863 1541.86 234.243L1543.23 235.695ZM1550.88 225.983C1550.46 226.349 1550.43 226.981 1550.79 227.395C1551.16 227.808 1551.79 227.846 1552.2 227.48L1550.88 225.983ZM1561.42 219.588C1561.84 219.236 1561.9 218.606 1561.55 218.18C1561.2 217.755 1560.57 217.695 1560.14 218.047L1561.42 219.588ZM1569.7 210.409C1569.27 210.746 1569.18 211.374 1569.52 211.811C1569.86 212.249 1570.49 212.33 1570.92 211.993L1569.7 210.409ZM1580.65 204.762C1581.1 204.44 1581.2 203.815 1580.88 203.366C1580.56 202.917 1579.94 202.814 1579.49 203.136L1580.65 204.762ZM1589.57 196.18C1589.11 196.485 1588.99 197.106 1589.29 197.566C1589.6 198.026 1590.22 198.152 1590.68 197.846L1589.57 196.18ZM1600.88 191.341C1601.35 191.052 1601.5 190.437 1601.21 189.966C1600.92 189.495 1600.31 189.347 1599.84 189.635L1600.88 191.341ZM1610.43 183.412C1609.95 183.683 1609.78 184.292 1610.05 184.774C1610.32 185.255 1610.93 185.425 1611.41 185.154L1610.43 183.412ZM1622.03 179.426C1622.52 179.173 1622.71 178.57 1622.46 178.079C1622.21 177.588 1621.6 177.396 1621.11 177.649L1622.03 179.426ZM1632.16 172.205C1631.66 172.44 1631.44 173.036 1631.68 173.535C1631.91 174.035 1632.51 174.25 1633.01 174.015L1632.16 172.205ZM1643.99 169.087C1644.5 168.87 1644.74 168.283 1644.52 167.775C1644.3 167.267 1643.72 167.031 1643.21 167.248L1643.99 169.087ZM1654.59 162.632C1654.07 162.83 1653.81 163.409 1654.01 163.924C1654.21 164.44 1654.79 164.697 1655.31 164.498L1654.59 162.632ZM1666.67 160.354C1667.19 160.174 1667.47 159.605 1667.29 159.083C1667.11 158.561 1666.54 158.284 1666.02 158.464L1666.67 160.354ZM1677.63 154.684C1677.1 154.845 1676.81 155.405 1676.97 155.933C1677.13 156.461 1677.69 156.758 1678.22 156.596L1677.63 154.684ZM1689.94 153.222C1690.48 153.079 1690.79 152.53 1690.65 151.997C1690.51 151.463 1689.96 151.148 1689.42 151.291L1689.94 153.222ZM1701.17 148.335C1700.63 148.461 1700.3 148.999 1700.43 149.536C1700.55 150.074 1701.09 150.408 1701.63 150.282L1701.17 148.335ZM1713.64 147.675C1714.18 147.567 1714.53 147.04 1714.42 146.499C1714.32 145.957 1713.79 145.606 1713.25 145.714L1713.64 147.675ZM1725.12 143.53C1724.58 143.621 1724.21 144.137 1724.3 144.682C1724.4 145.226 1724.91 145.594 1725.46 145.502L1725.12 143.53ZM1737.48 143.67C1738.03 143.595 1738.41 143.09 1738.34 142.543C1738.26 141.996 1737.76 141.613 1737.21 141.688L1737.48 143.67ZM1749.43 140.198C1748.88 140.256 1748.49 140.749 1748.54 141.298C1748.6 141.848 1749.1 142.245 1749.65 142.186L1749.43 140.198ZM1761.59 141.076C1762.14 141.033 1762.55 140.551 1762.51 140C1762.46 139.45 1761.98 139.039 1761.43 139.082L1761.59 141.076ZM1773.71 138.281C1773.16 138.31 1772.74 138.78 1772.76 139.332C1772.79 139.883 1773.26 140.307 1773.81 140.279L1773.71 138.281ZM1785.91 139.966C1786.46 139.967 1786.91 139.521 1786.91 138.969C1786.92 138.417 1786.47 137.967 1785.92 137.966L1785.91 139.966ZM1797.79 138.229C1797.24 138.206 1796.78 138.635 1796.75 139.186C1796.73 139.738 1797.16 140.204 1797.71 140.227L1797.79 138.229ZM1809.48 140.969C1810.03 141.016 1810.52 140.608 1810.56 140.058C1810.61 139.507 1810.2 139.023 1809.65 138.977L1809.48 140.969ZM1821.46 140.252C1820.92 140.179 1820.41 140.565 1820.34 141.112C1820.27 141.66 1820.65 142.162 1821.2 142.234L1821.46 140.252ZM1832.85 144.061C1833.39 144.16 1833.91 143.8 1834.01 143.257C1834.11 142.713 1833.75 142.193 1833.2 142.093L1832.85 144.061ZM1844.84 144.534C1844.3 144.406 1843.77 144.738 1843.64 145.276C1843.51 145.813 1843.84 146.352 1844.38 146.48L1844.84 144.534ZM1855.77 149.514C1856.3 149.67 1856.86 149.368 1857.01 148.838C1857.17 148.309 1856.87 147.753 1856.34 147.596L1855.77 149.514ZM1867.65 151.291C1867.13 151.105 1866.56 151.375 1866.37 151.895C1866.19 152.415 1866.46 152.987 1866.98 153.174L1867.65 151.291ZM1877.94 157.453C1878.45 157.668 1879.04 157.43 1879.25 156.922C1879.47 156.413 1879.23 155.826 1878.72 155.611L1877.94 157.453ZM1889.53 160.552C1889.03 160.308 1888.43 160.512 1888.19 161.008C1887.95 161.503 1888.15 162.103 1888.65 162.346L1889.53 160.552ZM1899.07 167.834C1899.55 168.105 1900.16 167.934 1900.43 167.453C1900.7 166.971 1900.53 166.361 1900.05 166.091L1899.07 167.834ZM1910.24 172.198C1909.78 171.902 1909.16 172.039 1908.86 172.505C1908.57 172.971 1908.7 173.59 1909.17 173.886L1910.24 172.198ZM1918.94 180.468C1919.39 180.788 1920.02 180.683 1920.34 180.233C1920.66 179.783 1920.55 179.159 1920.1 178.838L1918.94 180.468ZM1929.61 185.97C1929.17 185.628 1928.54 185.702 1928.2 186.135C1927.86 186.569 1927.93 187.198 1928.37 187.54L1929.61 185.97ZM1937.44 195.062C1937.86 195.424 1938.49 195.38 1938.85 194.963C1939.22 194.546 1939.17 193.914 1938.76 193.552L1937.44 195.062ZM1947.55 201.544C1947.15 201.164 1946.52 201.18 1946.14 201.581C1945.76 201.981 1945.77 202.614 1946.17 202.995L1947.55 201.544ZM1954.56 211.302C1954.95 211.698 1955.58 211.708 1955.98 211.324C1956.37 210.94 1956.38 210.306 1956 209.91L1954.56 211.302ZM1964.11 218.617C1963.74 218.205 1963.11 218.171 1962.7 218.54C1962.29 218.908 1962.25 219.541 1962.62 219.952L1964.11 218.617ZM1970.34 228.883C1970.7 229.307 1971.33 229.365 1971.75 229.011C1972.17 228.657 1972.23 228.027 1971.88 227.603L1970.34 228.883ZM1979.3 236.816C1978.96 236.381 1978.33 236.302 1977.9 236.642C1977.46 236.981 1977.38 237.609 1977.72 238.045L1979.3 236.816ZM1984.81 247.458C1985.14 247.904 1985.77 248.002 1986.21 247.676C1986.66 247.351 1986.76 246.725 1986.43 246.279L1984.81 247.458ZM1993.29 255.98C1992.98 255.525 1992.36 255.409 1991.9 255.721C1991.45 256.034 1991.33 256.656 1991.64 257.112L1993.29 255.98ZM1998.23 267C1998.53 267.464 1999.15 267.597 1999.61 267.297C2000.08 266.997 2000.21 266.378 1999.91 265.914L1998.23 267ZM2006.19 275.888C2005.9 275.417 2005.28 275.269 2004.81 275.557C2004.34 275.845 2004.19 276.461 2004.48 276.932L2006.19 275.888ZM2010.52 287.069C2010.8 287.546 2011.41 287.709 2011.89 287.431C2012.37 287.154 2012.53 286.542 2012.25 286.064L2010.52 287.069ZM2018.13 296.452C2017.86 295.969 2017.26 295.793 2016.77 296.059C2016.29 296.326 2016.11 296.934 2016.38 297.418L2018.13 296.452ZM2021.95 307.765C2022.21 308.254 2022.81 308.442 2023.3 308.185C2023.79 307.928 2023.98 307.323 2023.72 306.835L2021.95 307.765ZM2029.13 317.379C2028.88 316.885 2028.28 316.686 2027.79 316.933C2027.3 317.181 2027.1 317.782 2027.34 318.275L2029.13 317.379ZM2032.58 328.952C2032.81 329.45 2033.41 329.661 2033.91 329.422C2034.41 329.183 2034.62 328.586 2034.38 328.088L2032.58 328.952ZM2039.37 338.743C2039.14 338.241 2038.55 338.021 2038.05 338.251C2037.55 338.482 2037.33 339.075 2037.56 339.577L2039.37 338.743ZM2042.43 350.429C2042.65 350.935 2043.24 351.164 2043.75 350.942C2044.25 350.72 2044.48 350.13 2044.26 349.624L2042.43 350.429ZM2048.93 360.45C2048.71 359.941 2048.12 359.703 2047.62 359.918C2047.11 360.133 2046.87 360.719 2047.08 361.228L2048.93 360.45ZM2051.62 372.179C2051.82 372.691 2052.41 372.937 2052.92 372.729C2053.43 372.522 2053.68 371.939 2053.47 371.427L2051.62 372.179ZM2057.85 382.425C2057.65 381.911 2057.07 381.656 2056.55 381.857C2056.04 382.058 2055.78 382.638 2055.99 383.153L2057.85 382.425ZM2060.22 394.192C2060.41 394.709 2060.99 394.971 2061.51 394.776C2062.02 394.582 2062.28 394.005 2062.09 393.488L2060.22 394.192ZM2066.2 404.613C2066.01 404.093 2065.44 403.825 2064.92 404.014C2064.4 404.202 2064.13 404.776 2064.32 405.295L2066.2 404.613ZM2068.29 416.423C2068.47 416.944 2069.04 417.219 2069.56 417.036C2070.08 416.854 2070.36 416.283 2070.17 415.762L2068.29 416.423ZM2074.03 426.973C2073.85 426.449 2073.29 426.169 2072.76 426.346C2072.24 426.523 2071.96 427.09 2072.14 427.614L2074.03 426.973ZM2076.15 439.281C2076.35 439.799 2076.92 440.061 2077.44 439.868C2077.96 439.675 2078.22 439.098 2078.03 438.581L2076.15 439.281ZM2082.61 449.536C2082.38 449.035 2081.78 448.819 2081.28 449.053C2080.78 449.287 2080.57 449.882 2080.8 450.382L2082.61 449.536ZM2086.56 461.337C2086.84 461.812 2087.45 461.97 2087.93 461.689C2088.4 461.408 2088.56 460.795 2088.28 460.319L2086.56 461.337ZM2094.94 470.294C2094.6 469.853 2093.98 469.765 2093.54 470.098C2093.1 470.431 2093.01 471.058 2093.34 471.498L2094.94 470.294ZM2101.28 480.735C2101.66 481.129 2102.3 481.135 2102.69 480.748C2103.08 480.361 2103.09 479.728 2102.7 479.334L2101.28 480.735ZM2111.65 487.219C2111.21 486.886 2110.58 486.973 2110.25 487.413C2109.92 487.853 2110 488.48 2110.44 488.814L2111.65 487.219ZM2120.8 495.454C2121.29 495.715 2121.9 495.531 2122.16 495.044C2122.42 494.557 2122.23 493.951 2121.75 493.69L2120.8 495.454ZM2132.7 498.474C2132.18 498.293 2131.61 498.57 2131.43 499.092C2131.25 499.614 2131.53 500.183 2132.05 500.364L2132.7 498.474ZM2143.88 503.49C2144.43 503.592 2144.95 503.235 2145.05 502.692C2145.15 502.149 2144.79 501.626 2144.25 501.525L2143.88 503.49ZM2156.14 502.926C2155.58 502.897 2155.11 503.321 2155.08 503.872C2155.06 504.424 2155.48 504.894 2156.03 504.923L2156.14 502.926ZM2168.27 504.839C2168.83 504.805 2169.24 504.329 2169.21 503.778C2169.17 503.227 2168.7 502.809 2168.15 502.843L2168.27 504.839ZM2180.15 501.467C2179.61 501.556 2179.24 502.07 2179.33 502.615C2179.42 503.16 2179.93 503.53 2180.47 503.44L2180.15 501.467ZM2192.4 500.952C2192.94 500.817 2193.26 500.274 2193.13 499.738C2193 499.202 2192.45 498.878 2191.92 499.012L2192.4 500.952ZM2203.44 495.656C2202.92 495.829 2202.63 496.394 2202.8 496.919C2202.98 497.443 2203.54 497.728 2204.07 497.555L2203.44 495.656ZM2215.55 493.358C2216.06 493.152 2216.31 492.57 2216.1 492.057C2215.9 491.545 2215.32 491.296 2214.8 491.501L2215.55 493.358ZM2225.93 486.675C2225.43 486.908 2225.22 487.503 2225.45 488.004C2225.68 488.504 2226.28 488.721 2226.78 488.488L2225.93 486.675ZM2237.61 483.117C2238.1 482.86 2238.29 482.255 2238.04 481.767C2237.78 481.278 2237.17 481.089 2236.69 481.346L2237.61 483.117ZM2247.31 475.467C2246.83 475.744 2246.67 476.357 2246.94 476.834C2247.22 477.311 2247.83 477.473 2248.31 477.196L2247.31 475.467ZM2258.7 470.877C2259.17 470.581 2259.31 469.963 2259.01 469.497C2258.71 469.03 2258.1 468.892 2257.63 469.188L2258.7 470.877ZM2267.71 462.54C2267.25 462.852 2267.13 463.475 2267.45 463.93C2267.76 464.386 2268.38 464.502 2268.84 464.19L2267.71 462.54ZM2278.82 457.102C2279.27 456.776 2279.37 456.15 2279.04 455.704C2278.71 455.259 2278.09 455.163 2277.64 455.49L2278.82 457.102ZM2287.22 448.234C2286.78 448.574 2286.71 449.202 2287.05 449.637C2287.39 450.073 2288.02 450.15 2288.45 449.81L2287.22 448.234ZM2297.99 442.137C2298.42 441.784 2298.48 441.154 2298.13 440.729C2297.78 440.303 2297.15 440.243 2296.72 440.596L2297.99 442.137ZM2305.89 432.805C2305.47 433.168 2305.43 433.8 2305.79 434.216C2306.15 434.632 2306.79 434.675 2307.2 434.312L2305.89 432.805ZM2316.3 426.168C2316.71 425.794 2316.74 425.162 2316.36 424.755C2315.99 424.348 2315.36 424.321 2314.95 424.694L2316.3 426.168ZM2323.74 416.434C2323.34 416.817 2323.33 417.45 2323.71 417.848C2324.1 418.246 2324.73 418.258 2325.13 417.876L2323.74 416.434ZM2333.82 409.321C2334.21 408.929 2334.21 408.296 2333.82 407.906C2333.42 407.517 2332.79 407.519 2332.4 407.911L2333.82 409.321ZM2340.82 399.249C2340.44 399.65 2340.45 400.283 2340.85 400.663C2341.25 401.044 2341.89 401.028 2342.27 400.627L2340.82 399.249ZM2350.57 391.706C2350.94 391.297 2350.91 390.665 2350.51 390.293C2350.1 389.921 2349.47 389.95 2349.09 390.359L2350.57 391.706ZM2357.14 381.344C2356.78 381.76 2356.82 382.391 2357.23 382.755C2357.65 383.119 2358.28 383.076 2358.64 382.66L2357.14 381.344ZM2366.57 373.405C2366.93 372.982 2366.87 372.351 2366.45 371.996C2366.03 371.641 2365.4 371.696 2365.04 372.119L2366.57 373.405ZM2372.72 362.788C2372.37 363.218 2372.44 363.847 2372.87 364.194C2373.3 364.541 2373.93 364.473 2374.27 364.043L2372.72 362.788ZM2381.83 354.481C2382.17 354.044 2382.09 353.416 2381.65 353.078C2381.22 352.74 2380.59 352.819 2380.25 353.256L2381.83 354.481ZM2387.56 343.635C2387.23 344.078 2387.32 344.704 2387.76 345.034C2388.21 345.364 2388.83 345.272 2389.16 344.829L2387.56 343.635ZM2396.35 334.983C2396.67 334.534 2396.57 333.909 2396.12 333.588C2395.67 333.266 2395.04 333.37 2394.72 333.819L2396.35 334.983ZM2401.66 323.927C2401.35 324.382 2401.46 325.005 2401.92 325.318C2402.37 325.63 2402.99 325.515 2403.31 325.06L2401.66 323.927ZM2410.11 314.956C2410.41 314.495 2410.29 313.875 2409.82 313.571C2409.36 313.267 2408.74 313.394 2408.44 313.855L2410.11 314.956ZM2415 303.699C2414.71 304.166 2414.85 304.783 2415.31 305.079C2415.78 305.374 2416.4 305.235 2416.69 304.768L2415 303.699ZM2423.1 294.427C2423.39 293.955 2423.24 293.34 2422.76 293.054C2422.29 292.767 2421.68 292.918 2421.39 293.39L2423.1 294.427ZM2427.57 282.979C2427.29 283.457 2427.45 284.069 2427.93 284.346C2428.41 284.623 2429.02 284.461 2429.3 283.983L2427.57 282.979ZM2435.3 273.413C2435.57 272.93 2435.39 272.321 2434.91 272.053C2434.43 271.785 2433.82 271.959 2433.55 272.442L2435.3 273.413ZM2439.33 261.793C2439.07 262.281 2439.25 262.886 2439.74 263.145C2440.23 263.403 2440.84 263.217 2441.09 262.729L2439.33 261.793ZM2446.68 251.935C2446.92 251.442 2446.73 250.841 2446.23 250.592C2445.74 250.343 2445.14 250.541 2444.89 251.034L2446.68 251.935ZM2450.24 240.163C2450 240.661 2450.21 241.258 2450.71 241.497C2451.21 241.736 2451.8 241.526 2452.04 241.028L2450.24 240.163ZM2457.18 230.016C2457.41 229.513 2457.19 228.92 2456.69 228.692C2456.18 228.463 2455.59 228.686 2455.36 229.188L2457.18 230.016ZM2460.26 218.111C2460.04 218.618 2460.27 219.206 2460.78 219.424C2461.29 219.642 2461.88 219.407 2462.09 218.9L2460.26 218.111ZM2466.77 207.675C2466.98 207.163 2466.73 206.58 2466.22 206.374C2465.71 206.167 2465.12 206.414 2464.92 206.926L2466.77 207.675ZM2469.32 195.658C2469.13 196.174 2469.39 196.751 2469.91 196.947C2470.42 197.142 2471 196.882 2471.2 196.365L2469.32 195.658ZM2475.37 184.936C2475.56 184.415 2475.28 183.844 2474.76 183.661C2474.24 183.477 2473.67 183.75 2473.49 184.271L2475.37 184.936ZM2477.38 172.82C2477.21 173.345 2477.49 173.91 2478.02 174.081C2478.54 174.253 2479.11 173.966 2479.28 173.441L2477.38 172.82ZM2482.92 161.824C2483.08 161.295 2482.78 160.738 2482.25 160.579C2481.72 160.42 2481.16 160.72 2481 161.249L2482.92 161.824ZM2484.34 149.624C2484.19 150.157 2484.51 150.707 2485.04 150.852C2485.57 150.998 2486.12 150.684 2486.27 150.151L2484.34 149.624ZM2489.32 138.37C2489.46 137.833 2489.13 137.292 2488.59 137.16C2488.06 137.028 2487.51 137.356 2487.38 137.893L2489.32 138.37ZM2490.11 126.108C2490 126.648 2490.34 127.181 2490.88 127.298C2491.42 127.416 2491.95 127.073 2492.07 126.534L2490.11 126.108ZM2494.49 114.611C2494.59 114.068 2494.24 113.545 2493.69 113.443C2493.15 113.34 2492.63 113.697 2492.53 114.24L2494.49 114.611ZM2494.6 102.319C2494.52 102.865 2494.89 103.377 2495.43 103.464C2495.98 103.551 2496.49 103.18 2496.58 102.634L2494.6 102.319ZM2499.63 91.5344C2499.85 91.0293 2499.63 90.4388 2499.12 90.2154C2498.62 89.9921 2498.03 90.2205 2497.8 90.7255L2499.63 91.5344ZM2503.03 80.2148C2502.76 80.6982 2502.94 81.3066 2503.42 81.5737C2503.91 81.8409 2504.51 81.6656 2504.78 81.1822L2503.03 80.2148ZM2510.79 71.2812C2511.09 70.8208 2510.97 70.2003 2510.51 69.8952C2510.05 69.5902 2509.43 69.7161 2509.12 70.1765L2510.79 71.2812ZM2515.98 60.6475C2515.64 61.0829 2515.72 61.7113 2516.16 62.051C2516.59 62.3908 2517.22 62.3133 2517.56 61.8778L2515.98 60.6475ZM2525.04 53.0214C2525.41 52.6135 2525.38 51.981 2524.97 51.6086C2524.57 51.2362 2523.93 51.2649 2523.56 51.6728L2525.04 53.0214ZM2531.81 43.3248C2531.4 43.7021 2531.38 44.3349 2531.76 44.7382C2532.14 45.1416 2532.77 45.1627 2533.17 44.7854L2531.81 43.3248ZM2541.93 37.2266C2542.37 36.8831 2542.44 36.2541 2542.1 35.8216C2541.75 35.3891 2541.12 35.317 2540.69 35.6605L2541.93 37.2266ZM2550.19 28.7397C2549.73 29.0461 2549.6 29.667 2549.91 30.1265C2550.22 30.586 2550.84 30.7102 2551.3 30.4039L2550.19 28.7397ZM2561.18 24.4026C2561.67 24.1365 2561.84 23.5284 2561.58 23.0445C2561.31 22.5606 2560.7 22.384 2560.22 22.6501L2561.18 24.4026ZM2570.74 17.4403C2570.24 17.6636 2570.01 18.2541 2570.23 18.7593C2570.46 19.2644 2571.05 19.4928 2571.55 19.2695L2570.74 17.4403ZM2582.33 15.0557C2582.85 14.877 2583.13 14.3085 2582.95 13.7859C2582.77 13.2633 2582.2 12.9846 2581.68 13.1633L2582.33 15.0557ZM2592.95 9.84402C2592.41 9.97725 2592.09 10.5198 2592.22 11.0557C2592.35 11.5917 2592.9 11.9182 2593.43 11.785L2592.95 9.84402ZM2604.76 9.46958C2605.3 9.38148 2605.67 8.86808 2605.58 8.32287C2605.5 7.77765 2604.98 7.40709 2604.44 7.49519L2604.76 9.46958ZM2616.11 6.09112C2615.56 6.13521 2615.15 6.61724 2615.19 7.16776C2615.23 7.71828 2615.72 8.12883 2616.27 8.08473L2616.11 6.09112ZM2627.84 7.60332C2628.39 7.6011 2628.84 7.15159 2628.83 6.59931C2628.83 6.04703 2628.38 5.60111 2627.83 5.60333L2627.84 7.60332ZM2639.53 5.9764C2638.98 5.93946 2638.5 6.35623 2638.47 6.90728C2638.43 7.45833 2638.84 7.93498 2639.4 7.97192L2639.53 5.9764ZM2650.92 9.13223C2651.47 9.20539 2651.97 8.82093 2652.05 8.27352C2652.12 7.7261 2651.73 7.22302 2651.19 7.14985L2650.92 9.13223ZM2662.75 9.05967C2662.21 8.95336 2661.68 9.30653 2661.57 9.84848C2661.47 10.3904 2661.82 10.916 2662.36 11.0223L2662.75 9.05967ZM2673.68 13.5775C2674.22 13.7139 2674.76 13.3906 2674.9 12.8554C2675.03 12.3203 2674.71 11.7758 2674.18 11.6394L2673.68 13.5775ZM2685.44 14.8242C2684.92 14.6606 2684.35 14.9557 2684.19 15.4832C2684.03 16.0107 2684.32 16.5709 2684.85 16.7345L2685.44 14.8242ZM2695.85 20.4338C2696.37 20.6219 2696.94 20.3533 2697.13 19.8341C2697.32 19.3148 2697.05 18.7414 2696.53 18.5533L2695.85 20.4338ZM2707.44 22.7726C2706.93 22.5625 2706.34 22.8063 2706.13 23.3171C2705.92 23.8279 2706.17 24.4122 2706.68 24.6223L2707.44 22.7726ZM80.6591 30.4569C79.5789 32.1277 78.5041 33.8044 77.435 35.4867L79.123 36.5594C80.1892 34.8815 81.2612 33.2092 82.3386 31.5428L80.6591 30.4569ZM71.1 45.6352C69.0174 49.0325 66.9606 52.4503 64.9325 55.8867L66.6549 56.9032C68.6772 53.4766 70.7282 50.0684 72.8051 46.6804L71.1 45.6352ZM58.9413 66.2422C56.9737 69.7132 55.0376 73.2007 53.136 76.7028L54.8936 77.6572C56.7893 74.166 58.7195 70.6891 60.6812 67.2285L58.9413 66.2422ZM47.5273 87.2697C45.6885 90.8163 43.8873 94.3756 42.1266 97.9457L43.9204 98.8303C45.6749 95.2726 47.47 91.7252 49.3028 88.1903L47.5273 87.2697ZM36.9464 108.735C35.2534 112.361 33.6046 115.995 32.0032 119.637L33.834 120.442C35.4292 116.814 37.0717 113.194 38.7586 109.581L36.9464 108.735ZM27.3143 130.652C25.7897 134.357 24.3169 138.067 22.899 141.781L24.7675 142.494C26.179 138.797 27.6455 135.103 29.1638 131.413L27.3143 130.652ZM18.7793 153.024C17.4512 156.81 16.1835 160.596 14.9794 164.381L16.8852 164.987C18.0832 161.222 19.3447 157.454 20.6665 153.686L18.7793 153.024ZM11.5266 175.85C10.4303 179.714 9.40414 183.575 8.45155 187.428L10.3931 187.908C11.3401 184.077 12.3604 180.239 13.4507 176.396L11.5266 175.85ZM5.78832 199.11C4.96793 203.047 4.22877 206.974 3.57473 210.889L5.54739 211.218C6.1969 207.331 6.9311 203.43 7.74625 199.518L5.78832 199.11ZM1.85243 222.751C1.36185 226.745 0.965206 230.723 0.666713 234.683L2.66105 234.833C2.95711 230.906 3.35062 226.959 3.83751 222.995L1.85243 222.751ZM0.0660142 246.661C-0.0317314 250.683 -0.0216146 254.683 0.100929 258.657L2.09998 258.595C1.9786 254.659 1.96854 250.696 2.06542 246.709L0.0660142 246.661ZM0.822595 270.635C1.18481 274.637 1.66911 278.61 2.28036 282.549L4.25671 282.243C3.65215 278.347 3.17295 274.416 2.81446 270.454L0.822595 270.635ZM4.51885 294.348C5.40058 298.261 6.41711 302.135 7.57347 305.968L9.48824 305.391C8.34591 301.604 7.34141 297.775 6.46991 293.909L4.51885 294.348ZM11.4646 317.335C12.8974 321.061 14.4732 324.743 16.1971 328.377L18.0041 327.519C16.3022 323.932 14.7462 320.296 13.3314 316.617L11.4646 317.335ZM21.7568 339.025C23.7283 342.473 25.845 345.872 28.1112 349.219L29.7673 348.098C27.5294 344.793 25.4395 341.437 23.4931 338.033L21.7568 339.025ZM35.2107 358.907C37.6628 362.007 40.2555 365.057 42.9929 368.052L44.4693 366.703C41.7637 363.742 39.2017 360.729 36.7793 357.666L35.2107 358.907ZM51.3877 376.633C52.835 378.017 54.3163 379.388 55.8321 380.746L57.1664 379.256C55.6667 377.913 54.2013 376.556 52.7698 375.188L51.3877 376.633ZM55.8321 380.746C57.39 382.141 58.9543 383.503 60.5247 384.832L61.8167 383.305C60.2607 381.988 58.7105 380.639 57.1664 379.256L55.8321 380.746ZM70.0613 392.442C73.3898 394.942 76.7429 397.3 80.1181 399.518L81.2165 397.847C77.8769 395.652 74.558 393.318 71.2623 390.843L70.0613 392.442ZM90.6093 405.927C94.2148 407.967 97.842 409.854 101.488 411.591L102.348 409.785C98.745 408.069 95.1593 406.203 91.594 404.187L90.6093 405.927ZM112.736 416.456C116.581 417.953 120.442 419.29 124.318 420.471L124.901 418.557C121.074 417.392 117.259 416.071 113.462 414.592L112.736 416.456ZM136.217 423.595C140.237 424.485 144.268 425.212 148.307 425.779L148.585 423.799C144.598 423.239 140.618 422.521 136.649 421.642L136.217 423.595ZM160.523 427.011C164.611 427.263 168.703 427.356 172.795 427.294L172.765 425.295C168.723 425.356 164.683 425.264 160.646 425.015L160.523 427.011ZM185.055 426.649C189.122 426.283 193.185 425.767 197.24 425.106L196.918 423.132C192.91 423.786 188.894 424.295 184.876 424.657L185.055 426.649ZM209.283 422.711C213.24 421.783 217.187 420.718 221.12 419.52L220.537 417.606C216.645 418.792 212.74 419.846 208.826 420.764L209.283 422.711ZM232.729 415.584C236.532 414.164 240.319 412.62 244.086 410.957L243.278 409.127C239.546 410.775 235.795 412.304 232.029 413.71L232.729 415.584ZM255.17 405.69C258.792 403.847 262.392 401.894 265.968 399.833L264.97 398.1C261.423 400.144 257.853 402.081 254.263 403.908L255.17 405.69ZM276.41 393.468C279.815 391.278 283.196 388.99 286.548 386.608L285.39 384.978C282.062 387.342 278.707 389.613 275.328 391.786L276.41 393.468ZM296.382 379.289C299.588 376.793 302.765 374.21 305.911 371.542L304.617 370.017C301.492 372.667 298.337 375.232 295.154 377.711L296.382 379.289ZM315.072 363.456C318.055 360.717 321.007 357.901 323.925 355.01L322.518 353.589C319.617 356.462 316.684 359.261 313.719 361.982L315.072 363.456ZM332.479 346.225C335.255 343.268 337.999 340.242 340.706 337.149L339.202 335.832C336.509 338.907 333.781 341.916 331.021 344.856L332.479 346.225ZM348.6 327.822C351.17 324.681 353.704 321.478 356.201 318.215L354.613 317C352.129 320.245 349.608 323.431 347.052 326.556L348.6 327.822ZM363.496 308.364C365.854 305.074 368.175 301.728 370.457 298.33L368.797 297.215C366.526 300.597 364.217 303.925 361.871 307.199L363.496 308.364ZM377.132 288.061C379.295 284.622 381.419 281.134 383.503 277.597L381.78 276.582C379.706 280.102 377.592 283.574 375.439 286.996L377.132 288.061ZM389.552 266.986C391.515 263.427 393.437 259.823 395.317 256.177L393.539 255.261C391.668 258.89 389.755 262.478 387.801 266.02L389.552 266.986ZM400.773 245.225C402.532 241.569 404.249 237.874 405.923 234.14L404.098 233.322C402.432 237.039 400.722 240.719 398.971 244.358L400.773 245.225ZM410.786 222.887C412.345 219.143 413.86 215.363 415.331 211.549L413.465 210.829C412.001 214.627 410.492 218.39 408.94 222.118L410.786 222.887ZM419.583 200.076C420.946 196.243 422.265 192.378 423.537 188.483L421.636 187.862C420.369 191.741 419.056 195.589 417.699 199.405L419.583 200.076ZM427.178 176.823C428.341 172.923 429.458 168.994 430.527 165.038L428.596 164.516C427.532 168.455 426.42 172.368 425.262 176.252L427.178 176.823ZM433.563 153.2C434.045 151.214 434.516 149.222 434.974 147.224L433.024 146.777C432.568 148.767 432.1 150.751 431.62 152.728L433.563 153.2ZM434.974 147.224C435.429 145.24 435.907 143.274 436.407 141.325L434.47 140.828C433.965 142.793 433.483 144.776 433.024 146.777L434.974 147.224ZM439.68 129.846C440.892 125.989 442.195 122.207 443.586 118.503L441.714 117.8C440.31 121.539 438.994 125.355 437.772 129.247L439.68 129.846ZM448.07 107.507C449.706 103.798 451.433 100.176 453.247 96.6431L451.467 95.7298C449.636 99.2982 447.892 102.956 446.24 106.7L448.07 107.507ZM459.006 86.2034C461.054 82.7407 463.19 79.3745 465.408 76.1066L463.753 74.9835C461.512 78.2857 459.354 81.6869 457.284 85.185L459.006 86.2034ZM472.442 66.4192C474.897 63.2572 477.433 60.2022 480.044 57.2564L478.548 55.9297C475.907 58.9081 473.343 61.9966 470.862 65.1928L472.442 66.4192ZM488.287 48.5652C491.146 45.7478 494.079 43.05 497.082 40.4743L495.779 38.9564C492.742 41.5622 489.774 44.2911 486.883 47.1406L488.287 48.5652ZM506.389 33.0406C509.612 30.6477 512.901 28.3867 516.249 26.2601L515.177 24.5719C511.788 26.7246 508.459 29.0131 505.197 31.4347L506.389 33.0406ZM526.561 20.233C530.082 18.3478 533.656 16.6047 537.276 15.0066L536.468 13.1769C532.801 14.7956 529.182 16.5609 525.617 18.4699L526.561 20.233ZM548.381 10.6098C552.148 9.28632 555.954 8.11552 559.793 7.10045L559.281 5.16691C555.391 6.19562 551.534 7.38201 547.718 8.72296L548.381 10.6098ZM571.437 4.51827C575.355 3.81453 579.299 3.27138 583.259 2.89185L583.069 0.900974C579.053 1.28576 575.055 1.8364 571.083 2.54976L571.437 4.51827ZM595.168 2.24743C599.134 2.198 603.11 2.31353 607.087 2.59703L607.229 0.602097C603.196 0.314609 599.165 0.197466 595.143 0.247587L595.168 2.24743ZM618.961 3.94587C622.862 4.55555 626.757 5.33012 630.639 6.27247L631.111 4.32891C627.175 3.37347 623.225 2.58809 619.269 1.96986L618.961 3.94587ZM642.093 9.55677C645.848 10.8017 649.583 12.2091 653.293 13.7815L654.074 11.9401C650.314 10.3467 646.528 8.92037 642.722 7.6584L642.093 9.55677ZM664.061 18.8521C667.545 20.661 671 22.6225 674.419 24.7391L675.472 23.0385C672.01 20.8957 668.512 18.9093 664.983 17.0771L664.061 18.8521ZM684.41 31.4428C687.562 33.7276 690.678 36.1522 693.753 38.7187L695.035 37.1833C691.925 34.5879 688.773 32.1352 685.584 29.8234L684.41 31.4428ZM702.687 46.6918C705.528 49.3976 708.327 52.2335 711.08 55.201L712.546 53.8407C709.765 50.8434 706.937 47.9783 704.066 45.2437L702.687 46.6918ZM718.923 64.1663C721.436 67.2119 723.906 70.3765 726.327 73.6616L727.937 72.4751C725.494 69.1609 723.003 65.9674 720.465 62.8932L718.923 64.1663ZM733.114 83.3841C735.301 86.6899 737.442 90.1036 739.534 93.6263L741.254 92.6049C739.145 89.0549 736.987 85.6139 734.782 82.2807L733.114 83.3841ZM745.348 103.934C747.219 107.427 749.045 111.017 750.823 114.705L752.624 113.836C750.834 110.124 748.996 106.508 747.111 102.989L745.348 103.934ZM755.765 125.494C757.339 129.112 758.869 132.816 760.354 136.606L762.216 135.877C760.723 132.064 759.183 128.337 757.599 124.696L755.765 125.494ZM764.527 147.835C765.827 151.525 767.085 155.29 768.301 159.133L770.208 158.529C768.986 154.667 767.72 150.881 766.413 147.17L764.527 147.835ZM771.795 170.808C772.846 174.527 773.858 178.313 774.83 182.167L776.769 181.678C775.793 177.806 774.775 174.002 773.719 170.264L771.795 170.808ZM777.627 193.931C778.486 197.775 779.306 201.683 780.088 205.655L782.05 205.269C781.266 201.281 780.441 197.356 779.578 193.495L777.627 193.931ZM782.239 217.335C782.919 221.288 783.561 225.301 784.164 229.373L786.142 229.08C785.537 224.992 784.893 220.965 784.21 216.996L782.239 217.335ZM785.773 241.118C786.265 245.014 786.722 248.962 787.144 252.963L789.133 252.754C788.709 248.739 788.251 244.778 787.757 240.868L785.773 241.118ZM788.302 265.124C788.633 269.013 788.932 272.949 789.198 276.933L791.194 276.8C790.927 272.804 790.627 268.855 790.295 264.954L788.302 265.124ZM789.886 288.821C790.082 292.83 790.246 296.886 790.376 300.988L792.375 300.925C792.245 296.811 792.08 292.744 791.883 288.723L789.886 288.821ZM790.659 312.947C790.72 316.853 790.751 320.799 790.752 324.786L792.752 324.786C792.751 320.788 792.72 316.832 792.659 312.916L790.659 312.947ZM790.665 336.872C790.606 340.905 790.517 344.979 790.397 349.094L792.396 349.152C792.516 345.028 792.605 340.944 792.665 336.901L790.665 336.872ZM789.976 360.816C789.808 364.759 789.613 368.739 789.39 372.755L791.387 372.866C791.61 368.841 791.806 364.853 791.974 360.901L789.976 360.816ZM788.635 384.913C788.364 388.88 788.065 392.882 787.739 396.919L789.733 397.08C790.059 393.035 790.358 389.025 790.63 385.049L788.635 384.913ZM786.723 408.666C786.359 412.614 785.969 416.594 785.554 420.606L787.543 420.813C787.959 416.793 788.35 412.805 788.715 408.85L786.723 408.666ZM784.228 432.741C783.994 434.779 783.754 436.826 783.506 438.881L785.492 439.12C785.74 437.062 785.981 435.011 786.215 432.969L784.228 432.741ZM783.513 438.836C783.145 441.042 782.804 443.137 782.49 445.124L784.466 445.436C784.779 443.455 785.119 441.366 785.486 439.165L783.513 438.836ZM780.777 456.893C780.141 461.836 779.783 465.712 779.708 468.589L781.708 468.641C781.78 465.865 782.128 462.068 782.761 457.149L780.777 456.893ZM786.587 472.234C788.288 469.913 790.377 466.431 792.84 461.979L791.089 461.011C788.632 465.453 786.594 468.84 784.974 471.052L786.587 472.234ZM798.465 451.44C800.159 448.188 801.978 444.648 803.919 440.851L802.139 439.94C800.198 443.736 798.382 447.271 796.691 450.516L798.465 451.44ZM809.323 430.257C811.054 426.863 812.864 423.317 814.752 419.634L812.973 418.721C811.083 422.406 809.273 425.954 807.541 429.349L809.323 430.257ZM820.252 408.961C822.012 405.565 823.83 402.077 825.706 398.506L823.936 397.575C822.057 401.15 820.238 404.642 818.476 408.041L820.252 408.961ZM831.258 388.02C833.105 384.561 835.001 381.038 836.947 377.458L835.19 376.503C833.241 380.087 831.342 383.615 829.494 387.078L831.258 388.02ZM842.62 367.122C844.517 363.699 846.456 360.233 848.438 356.731L846.698 355.746C844.713 359.254 842.77 362.724 840.871 366.152L842.62 367.122ZM854.349 346.399C856.306 343.016 858.301 339.606 860.334 336.172L858.613 335.153C856.577 338.593 854.578 342.009 852.618 345.398L854.349 346.399ZM866.477 325.922C868.505 322.58 870.567 319.222 872.664 315.852L870.966 314.796C868.865 318.172 866.799 321.536 864.767 324.884L866.477 325.922ZM879.03 305.755C881.142 302.45 883.287 299.138 885.464 295.824L883.793 294.726C881.611 298.047 879.461 301.366 877.345 304.678L879.03 305.755ZM892.071 285.912C894.276 282.651 896.512 279.392 898.78 276.139L897.139 274.995C894.866 278.256 892.624 281.523 890.414 284.791L892.071 285.912ZM905.654 266.43C907.959 263.227 910.294 260.033 912.659 256.853L911.054 255.659C908.682 258.848 906.341 262.051 904.031 265.262L905.654 266.43ZM919.83 247.375C922.242 244.243 924.683 241.128 927.154 238.034L925.591 236.786C923.113 239.889 920.664 243.014 918.245 246.155L919.83 247.375ZM934.653 228.822C937.18 225.776 939.737 222.755 942.324 219.763L940.811 218.455C938.215 221.458 935.65 224.489 933.114 227.545L934.653 228.822ZM950.182 210.862C952.836 207.921 955.519 205.013 958.23 202.141L956.776 200.768C954.054 203.651 951.361 206.57 948.697 209.522L950.182 210.862ZM966.484 193.608C969.274 190.793 972.092 188.02 974.94 185.292L973.557 183.847C970.696 186.588 967.865 189.373 965.064 192.2L966.484 193.608ZM983.625 177.197C986.561 174.537 989.526 171.926 992.521 169.37L991.222 167.848C988.212 170.418 985.232 173.042 982.282 175.715L983.625 177.197ZM1001.67 161.803C1004.76 159.33 1007.88 156.916 1011.04 154.566L1009.84 152.963C1006.67 155.327 1003.53 157.755 1000.42 160.242L1001.67 161.803ZM1020.68 147.639C1023.94 145.392 1027.22 143.215 1030.53 141.113L1029.46 139.424C1026.13 141.541 1022.82 143.732 1019.55 145.993L1020.68 147.639ZM1040.69 134.959C1044.12 132.983 1047.57 131.089 1051.06 129.279L1050.14 127.504C1046.62 129.328 1043.14 131.237 1039.69 133.227L1040.69 134.959ZM1061.71 124.064C1065.3 122.412 1068.92 120.853 1072.57 119.391L1071.83 117.534C1068.14 119.009 1064.49 120.582 1060.87 122.247L1061.71 124.064ZM1083.67 115.281C1085.54 114.646 1087.41 114.037 1089.3 113.455L1088.7 111.544C1086.8 112.132 1084.91 112.747 1083.03 113.387L1083.67 115.281ZM1089.3 113.455C1091.27 112.842 1093.23 112.268 1095.16 111.73L1094.62 109.804C1092.67 110.346 1090.7 110.926 1088.7 111.544L1089.3 113.455ZM1106.47 108.951C1110.47 108.103 1114.37 107.426 1118.16 106.913L1117.89 104.932C1114.05 105.451 1110.11 106.137 1106.06 106.995L1106.47 108.951ZM1129.73 105.838C1133.75 105.641 1137.64 105.644 1141.42 105.837L1141.52 103.84C1137.68 103.643 1133.71 103.641 1129.63 103.84L1129.73 105.838ZM1153.1 107.098C1157.03 107.756 1160.82 108.639 1164.46 109.735L1165.04 107.819C1161.31 106.699 1157.44 105.797 1153.43 105.126L1153.1 107.098ZM1175.37 113.812C1178.94 115.424 1182.36 117.262 1185.65 119.311L1186.71 117.613C1183.34 115.518 1179.84 113.639 1176.19 111.989L1175.37 113.812ZM1195.17 126.114C1198.16 128.55 1201.04 131.18 1203.79 133.993L1205.22 132.593C1202.42 129.73 1199.49 127.048 1196.43 124.562L1195.17 126.114ZM1211.55 142.747C1213.96 145.749 1216.27 148.904 1218.49 152.2L1220.15 151.084C1217.9 147.744 1215.55 144.543 1213.1 141.494L1211.55 142.747ZM1224.7 162.209C1226.62 165.561 1228.47 169.028 1230.24 172.601L1232.03 171.713C1230.24 168.106 1228.38 164.603 1226.43 161.214L1224.7 162.209ZM1235.17 183.236C1236.72 186.792 1238.2 190.432 1239.63 194.15L1241.49 193.433C1240.06 189.69 1238.56 186.023 1237.01 182.44L1235.17 183.236ZM1243.66 205.288C1244.92 208.949 1246.12 212.673 1247.29 216.451L1249.2 215.862C1248.03 212.065 1246.82 208.323 1245.56 204.64L1243.66 205.288ZM1250.61 227.775C1251.66 231.548 1252.68 235.366 1253.66 239.223L1255.6 238.729C1254.61 234.859 1253.59 231.026 1252.53 227.237L1250.61 227.775ZM1256.45 250.65C1257.34 254.465 1258.21 258.311 1259.05 262.182L1261 261.758C1260.16 257.877 1259.29 254.021 1258.4 250.194L1256.45 250.65ZM1261.47 273.749C1262.25 277.595 1263.01 281.458 1263.75 285.333L1265.71 284.959C1264.97 281.076 1264.21 277.206 1263.43 273.352L1261.47 273.749ZM1265.91 296.961C1266.61 300.834 1267.3 304.714 1267.97 308.594L1269.94 308.252C1269.27 304.367 1268.58 300.483 1267.88 296.604L1265.91 296.961ZM1269.96 320.253C1270.62 324.142 1271.26 328.025 1271.9 331.899L1273.88 331.573C1273.24 327.698 1272.59 323.812 1271.94 319.921L1269.96 320.253ZM1273.82 343.59C1274.46 347.497 1275.1 351.388 1275.74 355.256L1277.71 354.932C1277.07 351.064 1276.44 347.174 1275.8 343.267L1273.82 343.59ZM1277.67 366.914C1278.33 370.844 1278.99 374.746 1279.66 378.61L1281.63 378.269C1280.96 374.409 1280.3 370.511 1279.64 366.583L1277.67 366.914ZM1281.72 390.236C1282.43 394.163 1283.15 398.044 1283.89 401.871L1285.86 401.492C1285.12 397.673 1284.4 393.799 1283.69 389.879L1281.72 390.236ZM1286.23 413.523C1287.04 417.443 1287.88 421.296 1288.75 425.072L1290.7 424.626C1289.83 420.863 1289 417.023 1288.18 413.115L1286.23 413.523ZM1291.52 436.531C1292.52 440.472 1293.57 444.313 1294.66 448.041L1296.58 447.481C1295.5 443.776 1294.46 439.957 1293.45 436.035L1291.52 436.531ZM1298.23 459.392C1299.54 463.261 1300.92 466.978 1302.36 470.529L1304.22 469.775C1302.79 466.265 1301.42 462.584 1300.12 458.748L1298.23 459.392ZM1307.27 481.361C1309.14 485.062 1311.12 488.516 1313.22 491.698L1314.89 490.597C1312.83 487.487 1310.89 484.101 1309.05 480.459L1307.27 481.361ZM1320.58 501.141C1321.95 502.614 1323.38 503.988 1324.85 505.258L1326.15 503.744C1324.74 502.524 1323.37 501.2 1322.04 499.776L1320.58 501.141ZM1324.85 505.258C1326.57 506.747 1328.27 508.073 1329.94 509.239L1331.08 507.598C1329.48 506.476 1327.83 505.193 1326.15 503.744L1324.85 505.258ZM1340.93 514.747C1345.25 516.016 1349.4 516.134 1353.42 515.202L1352.97 513.253C1349.29 514.104 1345.49 514.004 1341.5 512.829L1340.93 514.747ZM1364.72 509.696C1367.74 507.441 1370.7 504.605 1373.62 501.259L1372.12 499.943C1369.26 503.21 1366.4 505.942 1363.52 508.093L1364.72 509.696ZM1381.12 491.55C1383.32 488.374 1385.53 484.928 1387.75 481.239L1386.04 480.206C1383.83 483.866 1381.65 487.275 1379.47 490.41L1381.12 491.55ZM1393.87 470.594C1395.78 467.136 1397.7 463.52 1399.66 459.764L1397.88 458.841C1395.93 462.586 1394.02 466.187 1392.12 469.628L1393.87 470.594ZM1405.16 448.995C1406.94 445.458 1408.75 441.821 1410.59 438.095L1408.79 437.209C1406.95 440.933 1405.15 444.565 1403.37 448.097L1405.16 448.995ZM1416 427.085C1417.76 423.515 1419.54 419.879 1421.36 416.183L1419.57 415.299C1417.75 418.996 1415.96 422.634 1414.21 426.203L1416 427.085ZM1426.76 405.29C1428.56 401.68 1430.4 398.023 1432.28 394.327L1430.49 393.421C1428.61 397.122 1426.77 400.783 1424.97 404.397L1426.76 405.29ZM1437.8 383.568C1439.66 379.997 1441.56 376.397 1443.49 372.772L1441.73 371.829C1439.79 375.461 1437.89 379.069 1436.03 382.646L1437.8 383.568ZM1449.3 362.074C1451.25 358.556 1453.23 355.022 1455.26 351.476L1453.52 350.483C1451.49 354.039 1449.5 357.582 1447.55 361.108L1449.3 362.074ZM1461.41 340.923C1463.46 337.472 1465.55 334.015 1467.69 330.556L1465.99 329.504C1463.84 332.973 1461.74 336.44 1459.69 339.901L1461.41 340.923ZM1474.23 320.225C1476.41 316.853 1478.63 313.485 1480.91 310.124L1479.25 309.003C1476.97 312.376 1474.73 315.756 1472.55 319.139L1474.23 320.225ZM1487.86 300.098C1490.19 296.817 1492.57 293.548 1495 290.295L1493.4 289.098C1490.96 292.364 1488.57 295.646 1486.23 298.939L1487.86 300.098ZM1502.42 280.625C1504.91 277.46 1507.45 274.314 1510.05 271.19L1508.51 269.912C1505.9 273.049 1503.35 276.209 1500.84 279.388L1502.42 280.625ZM1517.96 261.939C1520.62 258.913 1523.34 255.914 1526.11 252.944L1524.65 251.579C1521.87 254.564 1519.14 257.578 1516.46 260.618L1517.96 261.939ZM1534.55 244.176C1537.39 241.316 1540.28 238.487 1543.23 235.695L1541.86 234.243C1538.89 237.049 1535.98 239.892 1533.13 242.767L1534.55 244.176ZM1552.2 227.48C1555.22 224.81 1558.29 222.178 1561.42 219.588L1560.14 218.047C1557 220.652 1553.91 223.299 1550.88 225.983L1552.2 227.48ZM1570.92 211.993C1574.11 209.538 1577.35 207.127 1580.65 204.762L1579.49 203.136C1576.17 205.515 1572.9 207.94 1569.7 210.409L1570.92 211.993ZM1590.68 197.846C1594.02 195.63 1597.42 193.46 1600.88 191.341L1599.84 189.635C1596.36 191.767 1592.94 193.95 1589.57 196.18L1590.68 197.846ZM1611.41 185.154C1614.89 183.194 1618.43 181.284 1622.03 179.426L1621.11 177.649C1617.49 179.518 1613.93 181.44 1610.43 183.412L1611.41 185.154ZM1633.01 174.015C1636.61 172.319 1640.27 170.676 1643.99 169.087L1643.21 167.248C1639.47 168.846 1635.78 170.499 1632.16 172.205L1633.01 174.015ZM1655.31 164.498C1659.04 163.062 1662.82 161.68 1666.67 160.354L1666.02 158.464C1662.15 159.797 1658.34 161.187 1654.59 162.632L1655.31 164.498ZM1678.22 156.596C1682.07 155.416 1685.98 154.29 1689.94 153.222L1689.42 151.291C1685.44 152.365 1681.51 153.497 1677.63 154.684L1678.22 156.596ZM1701.63 150.282C1705.58 149.357 1709.58 148.487 1713.64 147.675L1713.25 145.714C1709.17 146.53 1705.14 147.405 1701.17 148.335L1701.63 150.282ZM1725.46 145.502C1729.41 144.837 1733.42 144.226 1737.48 143.67L1737.21 141.688C1733.13 142.247 1729.1 142.861 1725.12 143.53L1725.46 145.502ZM1749.65 142.186C1753.58 141.765 1757.56 141.395 1761.59 141.076L1761.43 139.082C1757.38 139.402 1753.38 139.774 1749.43 140.198L1749.65 142.186ZM1773.81 140.279C1775.88 140.172 1777.95 140.079 1780.04 140L1779.96 138.001C1777.87 138.081 1775.78 138.174 1773.71 138.281L1773.81 140.279ZM1780.01 140C1781.98 139.972 1783.94 139.96 1785.91 139.966L1785.92 137.966C1783.94 137.96 1781.96 137.972 1779.98 138.001L1780.01 140ZM1797.71 140.227C1801.63 140.392 1805.55 140.636 1809.48 140.969L1809.65 138.977C1805.69 138.641 1801.74 138.395 1797.79 138.229L1797.71 140.227ZM1821.2 142.234C1825.08 142.745 1828.96 143.351 1832.85 144.061L1833.2 142.093C1829.29 141.378 1825.37 140.767 1821.46 140.252L1821.2 142.234ZM1844.38 146.48C1848.18 147.381 1851.97 148.39 1855.77 149.514L1856.34 147.596C1852.51 146.462 1848.67 145.444 1844.84 144.534L1844.38 146.48ZM1866.98 153.174C1870.63 154.483 1874.29 155.907 1877.94 157.453L1878.72 155.611C1875.03 154.051 1871.34 152.613 1867.65 151.291L1866.98 153.174ZM1888.65 162.346C1892.13 164.056 1895.6 165.883 1899.07 167.834L1900.05 166.091C1896.55 164.122 1893.04 162.277 1889.53 160.552L1888.65 162.346ZM1909.17 173.886C1912.43 175.962 1915.69 178.154 1918.94 180.468L1920.1 178.838C1916.82 176.505 1913.54 174.293 1910.24 172.198L1909.17 173.886ZM1928.37 187.54C1931.4 189.935 1934.43 192.44 1937.44 195.062L1938.76 193.552C1935.71 190.91 1932.66 188.384 1929.61 185.97L1928.37 187.54ZM1946.17 202.995C1948.98 205.658 1951.77 208.426 1954.56 211.302L1956 209.91C1953.19 207.014 1950.37 204.227 1947.55 201.544L1946.17 202.995ZM1962.62 219.952C1965.2 222.831 1967.78 225.807 1970.34 228.883L1971.88 227.603C1969.3 224.508 1966.71 221.514 1964.11 218.617L1962.62 219.952ZM1977.72 238.045C1980.09 241.093 1982.46 244.23 1984.81 247.458L1986.43 246.279C1984.06 243.034 1981.69 239.881 1979.3 236.816L1977.72 238.045ZM1991.64 257.112C1993.85 260.324 1996.04 263.619 1998.23 267L1999.91 265.914C1997.71 262.518 1995.51 259.207 1993.29 255.98L1991.64 257.112ZM2004.48 276.932C2006.5 280.235 2008.52 283.613 2010.52 287.069L2012.25 286.064C2010.24 282.596 2008.22 279.204 2006.19 275.888L2004.48 276.932ZM2016.38 297.418C2018.24 300.797 2020.1 304.246 2021.95 307.765L2023.72 306.835C2021.86 303.304 2020 299.843 2018.13 296.452L2016.38 297.418ZM2027.34 318.275C2029.09 321.768 2030.84 325.327 2032.58 328.952L2034.38 328.088C2032.64 324.452 2030.89 320.883 2029.13 317.379L2027.34 318.275ZM2037.56 339.577C2039.19 343.133 2040.81 346.75 2042.43 350.429L2044.26 349.624C2042.64 345.936 2041.01 342.309 2039.37 338.743L2037.56 339.577ZM2047.08 361.228C2048.6 364.822 2050.11 368.472 2051.62 372.179L2053.47 371.427C2051.96 367.711 2050.45 364.053 2048.93 360.45L2047.08 361.228ZM2055.99 383.153C2057.4 386.78 2058.81 390.46 2060.22 394.192L2062.09 393.488C2060.68 389.748 2059.27 386.061 2057.85 382.425L2055.99 383.153ZM2064.32 405.295C2065.65 408.955 2066.97 412.665 2068.29 416.423L2070.17 415.762C2068.85 411.997 2067.53 408.28 2066.2 404.613L2064.32 405.295ZM2072.14 427.614C2072.78 429.502 2073.41 431.403 2074.05 433.316L2075.95 432.685C2075.31 430.769 2074.67 428.865 2074.03 426.973L2072.14 427.614ZM2074.05 433.316C2074.73 435.351 2075.43 437.339 2076.15 439.281L2078.03 438.581C2077.31 436.663 2076.62 434.697 2075.95 432.685L2074.05 433.316ZM2080.8 450.382C2082.61 454.252 2084.53 457.902 2086.56 461.337L2088.28 460.319C2086.28 456.943 2084.39 453.35 2082.61 449.536L2080.8 450.382ZM2093.34 471.498C2095.86 474.839 2098.51 477.915 2101.28 480.735L2102.7 479.334C2100 476.578 2097.41 473.568 2094.94 470.294L2093.34 471.498ZM2110.44 488.814C2113.76 491.33 2117.22 493.54 2120.8 495.454L2121.75 493.69C2118.26 491.826 2114.89 489.672 2111.65 487.219L2110.44 488.814ZM2132.05 500.364C2135.88 501.693 2139.83 502.731 2143.88 503.49L2144.25 501.525C2140.29 500.783 2136.44 499.769 2132.7 498.474L2132.05 500.364ZM2156.03 504.923C2160.03 505.133 2164.12 505.102 2168.27 504.839L2168.15 502.843C2164.06 503.102 2160.06 503.132 2156.14 502.926L2156.03 504.923ZM2180.47 503.44C2184.4 502.797 2188.38 501.965 2192.4 500.952L2191.92 499.012C2187.94 500.013 2184.02 500.833 2180.15 501.467L2180.47 503.44ZM2204.07 497.555C2207.86 496.304 2211.69 494.903 2215.55 493.358L2214.8 491.501C2210.98 493.032 2207.19 494.418 2203.44 495.656L2204.07 497.555ZM2226.78 488.488C2230.37 486.815 2233.99 485.023 2237.61 483.117L2236.69 481.346C2233.08 483.238 2229.5 485.016 2225.93 486.675L2226.78 488.488ZM2248.31 477.196C2251.77 475.187 2255.23 473.08 2258.7 470.877L2257.63 469.188C2254.18 471.378 2250.74 473.472 2247.31 475.467L2248.31 477.196ZM2268.84 464.19C2272.16 461.911 2275.49 459.548 2278.82 457.102L2277.64 455.49C2274.33 457.923 2271.01 460.274 2267.71 462.54L2268.84 464.19ZM2288.45 449.81C2291.64 447.324 2294.82 444.765 2297.99 442.137L2296.72 440.596C2293.56 443.212 2290.39 445.759 2287.22 448.234L2288.45 449.81ZM2307.2 434.312C2310.24 431.659 2313.28 428.944 2316.3 426.168L2314.95 424.694C2311.94 427.459 2308.92 430.163 2305.89 432.805L2307.2 434.312ZM2325.13 417.876C2328.04 415.078 2330.94 412.225 2333.82 409.321L2332.4 407.911C2329.53 410.805 2326.64 413.647 2323.74 416.434L2325.13 417.876ZM2342.27 400.627C2345.05 397.701 2347.82 394.726 2350.57 391.706L2349.09 390.359C2346.35 393.369 2343.59 396.333 2340.82 399.249L2342.27 400.627ZM2358.64 382.66C2361.31 379.617 2363.95 376.531 2366.57 373.405L2365.04 372.119C2362.43 375.235 2359.79 378.311 2357.14 381.344L2358.64 382.66ZM2374.27 364.043C2376.81 360.893 2379.33 357.705 2381.83 354.481L2380.25 353.256C2377.76 356.47 2375.25 359.648 2372.72 362.788L2374.27 364.043ZM2389.16 344.829C2391.58 341.58 2393.98 338.298 2396.35 334.983L2394.72 333.819C2392.36 337.124 2389.97 340.396 2387.56 343.635L2389.16 344.829ZM2403.31 325.06C2405.6 321.721 2407.87 318.353 2410.11 314.956L2408.44 313.855C2406.21 317.241 2403.94 320.599 2401.66 323.927L2403.31 325.06ZM2416.69 304.768C2418.86 301.347 2420.99 297.9 2423.1 294.427L2421.39 293.39C2419.29 296.852 2417.16 300.289 2415 303.699L2416.69 304.768ZM2429.3 283.983C2431.33 280.483 2433.33 276.959 2435.3 273.413L2433.55 272.442C2431.59 275.977 2429.59 279.49 2427.57 282.979L2429.3 283.983ZM2441.09 262.729C2442.99 259.151 2444.85 255.553 2446.68 251.935L2444.89 251.034C2443.07 254.64 2441.22 258.227 2439.33 261.793L2441.09 262.729ZM2452.04 241.028C2453.79 237.374 2455.51 233.703 2457.18 230.016L2455.36 229.188C2453.69 232.863 2451.98 236.522 2450.24 240.163L2452.04 241.028ZM2462.09 218.9C2463.69 215.173 2465.25 211.431 2466.77 207.675L2464.92 206.926C2463.4 210.668 2461.85 214.397 2460.26 218.111L2462.09 218.9ZM2471.2 196.365C2472.63 192.568 2474.03 188.758 2475.37 184.936L2473.49 184.271C2472.15 188.078 2470.76 191.874 2469.32 195.658L2471.2 196.365ZM2479.28 173.441C2480.54 169.578 2481.75 165.705 2482.92 161.824L2481 161.249C2479.84 165.115 2478.63 168.972 2477.38 172.82L2479.28 173.441ZM2486.27 150.151C2487.34 146.23 2488.36 142.303 2489.32 138.37L2487.38 137.893C2486.42 141.809 2485.4 145.72 2484.34 149.624L2486.27 150.151ZM2492.07 126.534C2492.93 122.563 2493.74 118.588 2494.49 114.611L2492.53 114.24C2491.78 118.199 2490.97 122.155 2490.11 126.108L2492.07 126.534ZM2496.58 102.634C2496.9 100.638 2497.2 98.6404 2497.49 96.6433L2495.51 96.3574C2495.22 98.3448 2494.92 100.332 2494.6 102.319L2496.58 102.634ZM2497.43 96.858C2498.1 95.1266 2498.83 93.3492 2499.63 91.5344L2497.8 90.7255C2496.99 92.5704 2496.24 94.379 2495.57 96.1427L2497.43 96.858ZM2504.78 81.1822C2506.58 77.9277 2508.58 74.6133 2510.79 71.2812L2509.12 70.1765C2506.88 73.5535 2504.86 76.9137 2503.03 80.2148L2504.78 81.1822ZM2517.56 61.8778C2519.89 58.8977 2522.38 55.9355 2525.04 53.0214L2523.56 51.6728C2520.86 54.6261 2518.34 57.6278 2515.98 60.6475L2517.56 61.8778ZM2533.17 44.7854C2535.95 42.1912 2538.87 39.6636 2541.93 37.2266L2540.69 35.6605C2537.58 38.1321 2534.62 40.695 2531.81 43.3248L2533.17 44.7854ZM2551.3 30.4039C2554.46 28.2957 2557.75 26.2886 2561.18 24.4026L2560.22 22.6501C2556.74 24.5642 2553.39 26.6009 2550.19 28.7397L2551.3 30.4039ZM2571.55 19.2695C2575.02 17.7351 2578.61 16.3249 2582.33 15.0557L2581.68 13.1633C2577.91 14.4515 2574.27 15.8829 2570.74 17.4403L2571.55 19.2695ZM2593.43 11.785C2597.1 10.873 2600.87 10.0967 2604.76 9.46958L2604.44 7.49519C2600.5 8.13124 2596.67 8.9187 2592.95 9.84402L2593.43 11.785ZM2616.27 8.08473C2620.03 7.78318 2623.89 7.61917 2627.84 7.60332L2627.83 5.60333C2623.83 5.61939 2619.92 5.78549 2616.11 6.09112L2616.27 8.08473ZM2639.4 7.97192C2643.16 8.22424 2647 8.60831 2650.92 9.13223L2651.19 7.14985C2647.22 6.62021 2643.34 6.23171 2639.53 5.9764L2639.4 7.97192ZM2662.36 11.0223C2666.07 11.7495 2669.84 12.5992 2673.68 13.5775L2674.18 11.6394C2670.3 10.6521 2666.49 9.7942 2662.75 9.05967L2662.36 11.0223ZM2684.85 16.7345C2688.46 17.8544 2692.13 19.086 2695.85 20.4338L2696.53 18.5533C2692.78 17.1951 2689.08 15.9536 2685.44 14.8242L2684.85 16.7345ZM2706.68 24.6223C2708.47 25.3606 2710.28 26.1255 2712.1 26.9174L2712.9 25.0835C2711.07 24.2863 2709.25 23.5161 2707.44 22.7726L2706.68 24.6223Z" fill="#3B3A3D"/>
</svg>
