<svg viewBox="0 0 214 61" fill="none" xmlns="http://www.w3.org/2000/svg" id="logo">
<path d="M198.025 58.1934L198.025 25.1155L205.293 25.1155L211.781 18.641L211.781 9.47437L205.293 2.99988L196.14 2.99987L189.666 9.47437L189.666 16.7699L0.617195 16.7699" stroke="#D66744" stroke-width="4.05376" stroke-miterlimit="10"/>
<path d="M35.8975 18.5908H40.6562V21.1522H35.8975V18.5908Z" fill="#D66744"/>
<path d="M82.9757 18.5908H87.7344V21.1522H82.9757V18.5908Z" fill="#D66744"/>
<path d="M130.064 18.5908H134.822V21.1522H130.064V18.5908Z" fill="#D66744"/>
<path d="M177.157 18.5908H181.916V21.1522H177.157V18.5908Z" fill="#D66744"/>
<path d="M24.1319 18.5908H28.8906V21.1522H24.1319V18.5908Z" fill="#D66744"/>
<path d="M71.2179 18.5908H75.9766V21.1522H71.2179V18.5908Z" fill="#D66744"/>
<path d="M118.304 18.5908H123.062V21.1522H118.304V18.5908Z" fill="#D66744"/>
<path d="M165.392 18.5908H170.15V21.1522H165.392V18.5908Z" fill="#D66744"/>
<path d="M196.141 55.0751L196.141 58.1934L193.646 58.1934L193.646 55.0751L196.141 55.0751Z" fill="#D66744"/>
<path d="M12.3741 18.5908H17.1328V21.1522H12.3741V18.5908Z" fill="#D66744"/>
<path d="M59.46 18.5908H64.2188V21.1522H59.46V18.5908Z" fill="#D66744"/>
<path d="M106.546 18.5908H111.305V21.1522H106.546V18.5908Z" fill="#D66744"/>
<path d="M153.634 18.5908H158.393V21.1522H153.634V18.5908Z" fill="#D66744"/>
<path d="M196.205 43.4444L196.205 48.2031L193.644 48.2031L193.644 43.4444L196.205 43.4444Z" fill="#D66744"/>
<path d="M0.616292 18.5908H5.375V21.1522H0.616292V18.5908Z" fill="#D66744"/>
<path d="M47.71 18.5908H52.4688V21.1522H47.71V18.5908Z" fill="#D66744"/>
<path d="M94.7882 18.5908H99.5469V21.1522H94.7882V18.5908Z" fill="#D66744"/>
<path d="M141.884 18.5908H146.643V21.1522H141.884V18.5908Z" fill="#D66744"/>
<path d="M196.205 31.6876L196.205 36.4463L193.644 36.4463L193.644 31.6876L196.205 31.6876Z" fill="#D66744"/>
<path d="M11.8911 58.3984V53.1986H15.6052V54.1986H12.9839V58.3984H11.8911ZM18.6081 58.4841C17.0082 58.4841 15.8582 57.2913 15.8582 55.8128V55.7985C15.8582 54.3343 17.0225 53.1129 18.6224 53.1129C20.2224 53.1129 21.3723 54.3057 21.3723 55.7842V55.7985C21.3723 57.2628 20.2081 58.4841 18.6081 58.4841ZM18.6224 57.477C19.5652 57.477 20.2224 56.7271 20.2224 55.8128V55.7985C20.2224 54.8843 19.5438 54.12 18.6081 54.12C17.6653 54.12 17.0082 54.87 17.0082 55.7842V55.7985C17.0082 56.7128 17.6724 57.477 18.6224 57.477ZM24.7551 58.4841C23.2265 58.4841 22.0909 57.3056 22.0909 55.8128V55.7985C22.0909 54.3129 23.2051 53.1129 24.7979 53.1129C25.7836 53.1129 26.355 53.4415 26.8478 53.9129L26.1479 54.72C25.7407 54.3486 25.3336 54.12 24.7908 54.12C23.8908 54.12 23.2408 54.87 23.2408 55.7842V55.7985C23.2408 56.7128 23.8765 57.477 24.7908 57.477C25.3979 57.477 25.7693 57.2342 26.1836 56.8556L26.8836 57.5628C26.355 58.127 25.7479 58.4841 24.7551 58.4841ZM29.3534 58.3984H28.132L29.1605 56.6128L27.1392 53.1986H28.382L29.7677 55.62L31.0319 53.1986H32.2533L29.3534 58.3984ZM31.497 57.3985H32.0113L33.8184 53.1629H34.9755L36.7683 57.3985H37.2968V59.4555H36.2683V58.3984H32.5256V59.4555H31.497V57.3985ZM34.3826 54.37L33.1398 57.4413H35.6254L34.3826 54.37ZM37.5403 58.3984L39.7831 53.1629H40.7974L43.033 58.3984H41.883L41.3973 57.2128H39.1474L38.6617 58.3984H37.5403ZM39.5403 56.2414H41.0045L40.276 54.4771L39.5403 56.2414ZM43.7835 58.3984V53.1986H45.8906C47.1263 53.1986 47.8762 53.9343 47.8762 54.9843V54.9986C47.8762 56.1985 46.9406 56.8128 45.7835 56.8128H44.8764V58.3984H43.7835ZM44.8764 55.8342H45.8192C46.4192 55.8342 46.7691 55.4843 46.7691 55.02V55.0057C46.7691 54.47 46.3977 54.1914 45.7977 54.1914H44.8764V55.8342ZM51.0985 58.4841C49.5699 58.4841 48.4343 57.3056 48.4343 55.8128V55.7985C48.4343 54.3129 49.5485 53.1129 51.1413 53.1129C52.127 53.1129 52.6984 53.4415 53.1912 53.9129L52.4913 54.72C52.0841 54.3486 51.677 54.12 51.1342 54.12C50.2342 54.12 49.5842 54.87 49.5842 55.7842V55.7985C49.5842 56.7128 50.2199 57.477 51.1342 57.477C51.7413 57.477 52.1127 57.2342 52.527 56.8556L53.227 57.5628C52.6984 58.127 52.0913 58.4841 51.0985 58.4841ZM55.3009 58.3984V54.2129H53.701V53.1986H57.9937V54.2129H56.4009V58.3984H55.3009ZM58.8056 58.3984V53.1986H61.1983C61.7983 53.1986 62.2554 53.3629 62.5626 53.6557C62.7983 53.8915 62.9126 54.1914 62.9126 54.5414V54.5557C62.9126 55.1485 62.5911 55.47 62.2197 55.6842C62.8197 55.9057 63.2054 56.2628 63.2054 56.9556V56.9699C63.2054 57.9199 62.434 58.3984 61.2626 58.3984H58.8056ZM61.8197 54.7343V54.72C61.8197 54.37 61.5483 54.1629 61.0412 54.1629H59.8698V55.32H60.9698C61.4912 55.32 61.8197 55.1414 61.8197 54.7343ZM62.1126 56.8413V56.8271C62.1126 56.4556 61.8412 56.2342 61.2198 56.2342H59.8698V57.4342H61.2626C61.7983 57.4342 62.1126 57.2413 62.1126 56.8413ZM64.0896 58.3984V53.1986H67.9966V54.1772H65.1753V55.2914H67.6609V56.2699H65.1753V57.4199H68.0323V58.3984H64.0896ZM68.99 58.3984V53.1986H70.0828V55.2771H72.2684V53.1986H73.3684V58.3984H72.2684V56.2914H70.0828V58.3984H68.99ZM74.553 58.3984V53.1986H75.6458V55.2771H77.8315V53.1986H78.9314V58.3984H77.8315V56.2914H75.6458V58.3984H74.553ZM80.116 58.3984V53.1986H81.2089V54.8557H82.166C83.4088 54.8557 84.2088 55.4485 84.2088 56.6056V56.6128C84.2088 57.7056 83.4588 58.3984 82.1231 58.3984H80.116ZM81.2089 57.4056H82.1445C82.7374 57.4056 83.1016 57.1342 83.1016 56.6128V56.6056C83.1016 56.1199 82.7588 55.8271 82.1517 55.8342H81.2089V57.4056ZM84.9873 58.3984V53.1986H86.0873V58.3984H84.9873ZM89.5833 52.7986C88.8119 52.7986 88.2619 52.4201 88.1976 51.713H88.9405C89.0333 51.9487 89.2119 52.0844 89.5833 52.0844C89.9547 52.0844 90.1333 51.9487 90.2261 51.713H90.969C90.9047 52.4201 90.3547 52.7986 89.5833 52.7986ZM91.8832 58.3984H90.7832V54.9271L88.2476 58.3984H87.2834V53.1986H88.3762V56.5628L90.8332 53.1986H91.8832V58.3984ZM95.2148 58.3984V53.1986H96.3933L97.8004 55.4485L99.2147 53.1986H100.393V58.3984H99.3004V54.9343L97.8004 57.2056H97.7718L96.2862 54.9557V58.3984H95.2148ZM103.33 58.3984H102.108L103.137 56.6128L101.116 53.1986H102.358L103.744 55.62L105.008 53.1986H106.23L103.33 58.3984ZM107.173 54.7057L106.509 53.9629C107.073 53.4558 107.73 53.1129 108.652 53.1129C109.887 53.1129 110.595 53.6557 110.595 54.5129V54.52C110.595 55.1843 110.259 55.5057 109.695 55.7271C110.309 55.8842 110.737 56.2128 110.737 56.9413V56.9485C110.737 57.8342 109.945 58.4841 108.573 58.4841C107.63 58.4841 106.93 58.1484 106.416 57.6913L107.066 56.9056C107.516 57.2556 107.995 57.5056 108.602 57.5056C109.195 57.5056 109.623 57.2842 109.623 56.8556V56.8485C109.623 56.4485 109.23 56.2271 108.595 56.2342H107.638V55.32H108.623C109.166 55.32 109.48 55.0628 109.48 54.6843V54.6771C109.48 54.3057 109.166 54.0914 108.63 54.0914C108.08 54.0914 107.602 54.3414 107.173 54.7057ZM111.653 58.3984V53.1986H115.56V54.1772H112.738V55.2914H115.224V56.2699H112.738V57.4199H115.596V58.3984H111.653ZM118.853 52.7986C118.082 52.7986 117.532 52.4201 117.467 51.713H118.21C118.303 51.9487 118.482 52.0844 118.853 52.0844C119.225 52.0844 119.403 51.9487 119.496 51.713H120.239C120.174 52.4201 119.624 52.7986 118.853 52.7986ZM121.153 58.3984H120.053V54.9271L117.517 58.3984H116.553V53.1986H117.646V56.5628L120.103 53.1986H121.153V58.3984ZM124.227 56.6271V55.5771H126.499V56.6271H124.227ZM129.97 54.7057L129.306 53.9629C129.87 53.4558 130.527 53.1129 131.449 53.1129C132.684 53.1129 133.391 53.6557 133.391 54.5129V54.52C133.391 55.1843 133.056 55.5057 132.491 55.7271C133.106 55.8842 133.534 56.2128 133.534 56.9413V56.9485C133.534 57.8342 132.741 58.4841 131.37 58.4841C130.427 58.4841 129.727 58.1484 129.213 57.6913L129.863 56.9056C130.313 57.2556 130.792 57.5056 131.399 57.5056C131.991 57.5056 132.42 57.2842 132.42 56.8556V56.8485C132.42 56.4485 132.027 56.2271 131.391 56.2342H130.434V55.32H131.42C131.963 55.32 132.277 55.0628 132.277 54.6843V54.6771C132.277 54.3057 131.963 54.0914 131.427 54.0914C130.877 54.0914 130.399 54.3414 129.97 54.7057ZM133.993 58.3984L136.235 53.1629H137.25L139.485 58.3984H138.335L137.85 57.2128H135.6L135.114 58.3984H133.993ZM135.993 56.2414H137.457L136.728 54.4771L135.993 56.2414ZM140.236 58.3984V53.1986H144.579V58.3984H143.479V54.1986H141.329V58.3984H140.236ZM148.285 58.4841C146.685 58.4841 145.535 57.2913 145.535 55.8128V55.7985C145.535 54.3343 146.7 53.1129 148.299 53.1129C149.899 53.1129 151.049 54.3057 151.049 55.7842V55.7985C151.049 57.2628 149.885 58.4841 148.285 58.4841ZM148.299 57.477C149.242 57.477 149.899 56.7271 149.899 55.8128V55.7985C149.899 54.8843 149.221 54.12 148.285 54.12C147.342 54.12 146.685 54.87 146.685 55.7842V55.7985C146.685 56.7128 147.349 57.477 148.299 57.477ZM152.004 58.3984V53.1986H154.396C154.996 53.1986 155.453 53.3629 155.761 53.6557C155.996 53.8915 156.111 54.1914 156.111 54.5414V54.5557C156.111 55.1485 155.789 55.47 155.418 55.6842C156.018 55.9057 156.403 56.2628 156.403 56.9556V56.9699C156.403 57.9199 155.632 58.3984 154.461 58.3984H152.004ZM155.018 54.7343V54.72C155.018 54.37 154.746 54.1629 154.239 54.1629H153.068V55.32H154.168C154.689 55.32 155.018 55.1414 155.018 54.7343ZM155.311 56.8413V56.8271C155.311 56.4556 155.039 56.2342 154.418 56.2342H153.068V57.4342H154.461C154.996 57.4342 155.311 57.2413 155.311 56.8413ZM157.288 58.3984V53.1986H161.195V54.1772H158.373V55.2914H160.859V56.2699H158.373V57.4199H161.23V58.3984H157.288ZM161.781 57.3985H162.295L164.102 53.1629H165.259L167.052 57.3985H167.581V59.4555H166.552V58.3984H162.809V59.4555H161.781V57.3985ZM164.667 54.37L163.424 57.4413H165.909L164.667 54.37ZM168.365 58.3984V53.1986H169.458V55.2771H171.643V53.1986H172.743V58.3984H171.643V56.2914H169.458V58.3984H168.365ZM178.528 58.3984H177.428V54.9271L174.892 58.3984H173.928V53.1986H175.021V56.5628L177.478 53.1986H178.528V58.3984ZM179.721 58.3984V53.1986H180.814L180.8 55.2985H181.214L183.057 53.1986H184.421L182.092 55.7128L184.557 58.3984H183.157L181.235 56.2557H180.8L180.814 58.3984H179.721Z" fill="#D66744"/>
<path d="M5.57443 31.9763C6.77166 31.9763 7.74034 32.1994 8.48045 32.6457C9.23144 33.081 9.60694 33.6797 9.60694 34.4415C9.60694 35.2578 9.18791 35.9435 8.34984 36.4986C7.51177 37.0428 6.55398 37.4238 5.47647 37.6414C6.26012 37.6523 7.01655 37.772 7.74578 38.0006C8.47501 38.2292 9.06818 38.5666 9.52531 39.0128C9.99332 39.4591 10.2273 40.0087 10.2273 40.6617C10.2273 41.3474 9.96067 41.946 9.42735 42.4576C8.90492 42.9583 8.21923 43.3392 7.37028 43.6004C6.53222 43.8616 5.64517 43.9922 4.70915 43.9922C3.30512 43.9922 2.20583 43.6929 1.4113 43.0943C1.1392 42.8875 0.905199 42.6372 0.709287 42.3433C0.52426 42.0494 0.431746 41.7284 0.431746 41.3801C0.431746 40.8685 0.600447 40.4658 0.937851 40.172C1.27525 39.8781 1.6834 39.7312 2.1623 39.7312C2.65208 39.7312 3.03302 39.8672 3.30512 40.1393C3.57722 40.4005 3.71327 40.7923 3.71327 41.3148C3.71327 41.7175 3.56633 42.0767 3.27246 42.3923C2.98948 42.697 2.59766 42.9147 2.09699 43.0453C2.66296 43.4045 3.37586 43.5841 4.2357 43.5841C5.12818 43.5841 5.83564 43.3392 6.35807 42.8494C6.8805 42.3596 7.14172 41.6141 7.14172 40.6128C7.14172 39.8509 6.9839 39.1978 6.66826 38.6536C6.35263 38.1094 5.86829 37.821 5.21525 37.7884C4.95404 37.9299 4.72547 38.0006 4.52956 38.0006C4.42072 38.0006 4.33365 37.9788 4.26835 37.9353C4.20304 37.8918 4.17039 37.821 4.17039 37.7231C4.17039 37.5489 4.301 37.4618 4.56222 37.4618C4.70371 37.4618 4.92683 37.4945 5.23158 37.5598C5.69959 37.3421 6.02611 36.983 6.21114 36.4823C6.40705 35.9707 6.50501 35.4211 6.50501 34.8334C6.50501 34.0171 6.34719 33.4348 6.03155 33.0865C5.71592 32.7273 5.26967 32.5477 4.69282 32.5477C3.7568 32.5477 3.03846 32.8906 2.5378 33.5763C2.04802 34.262 1.77048 35.1653 1.70517 36.2864H1.32967C1.32967 34.3381 1.30791 32.9777 1.26437 32.2049H1.63987C1.67252 32.5532 1.7215 32.8035 1.7868 32.9559C1.8521 33.1083 1.94462 33.1844 2.06434 33.1844C2.14053 33.1844 2.24393 33.1355 2.37454 33.0375C2.88608 32.6675 3.35409 32.4008 3.77857 32.2375C4.21393 32.0634 4.81255 31.9763 5.57443 31.9763ZM20.7105 42.3923C20.852 42.7406 21.0044 43.0018 21.1676 43.1759C21.3418 43.3392 21.5105 43.4263 21.6737 43.4372V43.7637C20.8901 43.731 19.8997 43.7147 18.7024 43.7147C17.4616 43.7147 16.5474 43.731 15.9597 43.7637V43.4372C16.3732 43.4154 16.6671 43.3664 16.8413 43.2902C17.0154 43.2031 17.1025 43.0562 17.1025 42.8494C17.1025 42.6535 17.0372 42.3923 16.9066 42.0658L15.9433 39.3883H12.6455L12.3679 40.123C12.0088 41.0481 11.8292 41.7556 11.8292 42.2454C11.8292 42.6916 11.9543 42.9964 12.2047 43.1596C12.455 43.3229 12.8251 43.4154 13.3148 43.4372V43.7637C12.4985 43.731 11.7856 43.7147 11.1761 43.7147C10.6646 43.7147 10.2456 43.731 9.91905 43.7637V43.4372C10.1911 43.3936 10.4469 43.2249 10.6864 42.931C10.9258 42.6372 11.1707 42.1692 11.421 41.527L15.0454 32.2049C15.3937 32.2267 15.6821 32.2375 15.9107 32.2375C16.1284 32.2375 16.4113 32.2267 16.7596 32.2049L20.7105 42.3923ZM15.829 39.0618L14.3434 34.9803L12.7761 39.0618H15.829ZM26.4962 39.0944V41.8699C26.4962 42.327 26.5397 42.6589 26.6268 42.8657C26.7247 43.0725 26.8934 43.214 27.1329 43.2902C27.3832 43.3555 27.775 43.3882 28.3083 43.3882V43.7637C26.839 43.731 25.7179 43.7147 24.9452 43.7147C24.4336 43.7147 23.7207 43.7256 22.8065 43.7473L22.0228 43.7637V43.4372C22.3711 43.4154 22.6215 43.3718 22.7738 43.3065C22.9371 43.2412 23.0459 43.1161 23.1003 42.931C23.1548 42.746 23.182 42.4467 23.182 42.0331V33.9354C23.182 33.5218 23.1493 33.2225 23.084 33.0375C23.0296 32.8525 22.9262 32.7273 22.7738 32.662C22.6215 32.5967 22.3711 32.5532 22.0228 32.5314V32.2049C22.6432 32.2375 23.5792 32.2539 24.8309 32.2539L26.7084 32.2375C26.9261 32.2267 27.1764 32.2212 27.4594 32.2212C29.0702 32.2212 30.2892 32.5151 31.1164 33.1028C31.9545 33.6797 32.3735 34.4579 32.3735 35.4374C32.3735 36.036 32.2102 36.6129 31.8837 37.168C31.5572 37.7122 31.0021 38.1693 30.2185 38.5394C29.4348 38.9094 28.3954 39.0944 27.1002 39.0944H26.4962ZM27.3778 32.5314C27.1274 32.5314 26.937 32.5695 26.8063 32.6457C26.6866 32.7219 26.605 32.8579 26.5615 33.0538C26.5179 33.2497 26.4962 33.5436 26.4962 33.9354V38.7679H26.937C27.6988 38.7679 28.2213 38.4849 28.5042 37.919C28.7981 37.353 28.945 36.5857 28.945 35.617C28.945 34.5613 28.8253 33.7831 28.5859 33.2824C28.3464 32.7817 27.9437 32.5314 27.3778 32.5314ZM41.9789 42.3923C42.1204 42.7406 42.2728 43.0018 42.436 43.1759C42.6102 43.3392 42.7789 43.4263 42.9421 43.4372V43.7637C42.1585 43.731 41.168 43.7147 39.9708 43.7147C38.73 43.7147 37.8158 43.731 37.228 43.7637V43.4372C37.6416 43.4154 37.9355 43.3664 38.1097 43.2902C38.2838 43.2031 38.3709 43.0562 38.3709 42.8494C38.3709 42.6535 38.3056 42.3923 38.175 42.0658L37.2117 39.3883H33.9139L33.6363 40.123C33.2772 41.0481 33.0976 41.7556 33.0976 42.2454C33.0976 42.6916 33.2227 42.9964 33.4731 43.1596C33.7234 43.3229 34.0935 43.4154 34.5832 43.4372V43.7637C33.7669 43.731 33.054 43.7147 32.4445 43.7147C31.933 43.7147 31.514 43.731 31.1874 43.7637V43.4372C31.4595 43.3936 31.7153 43.2249 31.9548 42.931C32.1942 42.6372 32.4391 42.1692 32.6894 41.527L36.3138 32.2049C36.6621 32.2267 36.9505 32.2375 37.1791 32.2375C37.3968 32.2375 37.6797 32.2267 38.028 32.2049L41.9789 42.3923ZM37.0974 39.0618L35.6118 34.9803L34.0445 39.0618H37.0974ZM56.2377 32.5314C55.8894 32.5532 55.6391 32.5967 55.4867 32.662C55.3344 32.7273 55.2255 32.8525 55.1602 33.0375C55.1058 33.2225 55.0786 33.5218 55.0786 33.9354V42.0331C55.0786 42.4467 55.1058 42.746 55.1602 42.931C55.2255 43.1161 55.3344 43.2412 55.4867 43.3065C55.6391 43.3718 55.8894 43.4154 56.2377 43.4372V43.7637C55.6173 43.731 54.6487 43.7147 53.3317 43.7147C52.1562 43.7147 51.2474 43.731 50.6053 43.7637V43.4372C50.9536 43.4154 51.2039 43.3718 51.3563 43.3065C51.5086 43.2412 51.612 43.1161 51.6665 42.931C51.7318 42.746 51.7644 42.4467 51.7644 42.0331V34.5232L47.7645 42.2943C47.7754 42.61 47.8135 42.8494 47.8788 43.0127C47.9441 43.1651 48.053 43.2685 48.2053 43.3229C48.3686 43.3773 48.6081 43.4154 48.9237 43.4372V43.7637C48.2924 43.731 47.3836 43.7147 46.1973 43.7147C44.8803 43.7147 43.9116 43.731 43.2912 43.7637V43.4372C43.6395 43.4154 43.8899 43.3718 44.0422 43.3065C44.1946 43.2412 44.298 43.1161 44.3524 42.931C44.4177 42.746 44.4504 42.4467 44.4504 42.0331V33.9354C44.4504 33.5218 44.4177 33.2225 44.3524 33.0375C44.298 32.8525 44.1946 32.7273 44.0422 32.662C43.8899 32.5967 43.6395 32.5532 43.2912 32.5314V32.2049C43.9116 32.2375 44.8803 32.2539 46.1973 32.2539C47.3727 32.2539 48.2815 32.2375 48.9237 32.2049V32.5314C48.5754 32.5532 48.3251 32.5967 48.1727 32.662C48.0203 32.7273 47.9115 32.8525 47.8462 33.0375C47.7918 33.2225 47.7645 33.5218 47.7645 33.9354V41.478L51.7644 33.7232C51.7535 33.3858 51.7154 33.1409 51.6501 32.9885C51.5848 32.8253 51.476 32.7164 51.3236 32.662C51.1712 32.5967 50.9318 32.5532 50.6053 32.5314V32.2049C51.2365 32.2375 52.1453 32.2539 53.3317 32.2539C54.6487 32.2539 55.6173 32.2375 56.2377 32.2049V32.5314ZM52.3848 28.303C52.8419 28.303 53.2174 28.4227 53.5113 28.6622C53.816 28.8907 53.9684 29.1737 53.9684 29.5111C53.9684 29.7832 53.865 30.0281 53.6582 30.2458C53.4623 30.4526 53.1957 30.6322 52.8582 30.7845C52.51 30.9478 52.0692 31.0784 51.5358 31.1764C51.0025 31.2743 50.4148 31.3233 49.7726 31.3233C49.1305 31.3233 48.5428 31.2743 48.0094 31.1764C47.4761 31.0784 47.0299 30.9478 46.6707 30.7845C46.3442 30.643 46.083 30.4635 45.8871 30.2458C45.6912 30.0281 45.5932 29.7832 45.5932 29.5111C45.5932 29.1737 45.7401 28.8907 46.034 28.6622C46.3279 28.4227 46.7034 28.303 47.1605 28.303C47.6176 28.303 47.9986 28.4227 48.3033 28.6622C48.6081 28.8907 48.7604 29.1846 48.7604 29.5438C48.7604 29.8485 48.6462 30.1043 48.4176 30.3111C48.189 30.5179 47.9006 30.6648 47.5523 30.7519C48.2489 30.9151 48.989 30.9968 49.7726 30.9968C50.5563 30.9968 51.291 30.9097 51.9766 30.7356C51.6175 30.6376 51.3291 30.4907 51.1114 30.2947C50.9046 30.088 50.8012 29.8376 50.8012 29.5438C50.8012 29.1846 50.9481 28.8907 51.242 28.6622C51.5467 28.4227 51.9277 28.303 52.3848 28.303ZM63.3203 31.9763C63.9733 31.9763 64.5284 32.0688 64.9855 32.2539C65.4426 32.4389 65.8889 32.7001 66.3242 33.0375C66.4331 33.1355 66.5365 33.1844 66.6344 33.1844C66.8521 33.1844 66.9936 32.8579 67.0589 32.2049H67.4344C67.3909 32.9777 67.3691 34.3381 67.3691 36.2864H66.9936C66.9174 35.4157 66.7759 34.73 66.5691 34.2293C66.3623 33.7286 66.0032 33.3096 65.4916 32.9722C64.9801 32.6457 64.474 32.4824 63.9733 32.4824C62.8414 32.4824 62.0468 33.0266 61.5897 34.115C61.1326 35.2034 60.904 36.5041 60.904 38.0169C60.904 39.5298 61.1326 40.8304 61.5897 41.9188C62.0468 43.0072 62.8414 43.5514 63.9733 43.5514C64.474 43.5514 64.9801 43.3882 65.4916 43.0617C66.0032 42.746 66.3623 42.3215 66.5691 41.7882C66.7759 41.2549 66.9174 40.4985 66.9936 39.5189H67.3691C67.3691 41.5542 67.3909 42.9691 67.4344 43.7637H67.0589C67.0263 43.4154 66.9773 43.1705 66.912 43.029C66.8576 42.8766 66.7759 42.8004 66.6671 42.8004C66.58 42.8004 66.4657 42.844 66.3242 42.931C65.8345 43.2793 65.3664 43.546 64.9202 43.731C64.474 43.9052 63.9352 43.9922 63.3039 43.9922C62.074 43.9922 60.9965 43.7582 60.0714 43.2902C59.1463 42.8222 58.4279 42.1474 57.9164 41.2658C57.4048 40.3733 57.149 39.3121 57.149 38.0822C57.149 36.885 57.4103 35.8238 57.9327 34.8987C58.4551 33.9735 59.1843 33.2552 60.1204 32.7436C61.0564 32.2321 62.123 31.9763 63.3203 31.9763ZM80.4429 43.1106C80.1164 43.4372 79.7572 43.6657 79.3654 43.7963C78.9735 43.9269 78.5164 43.9922 77.994 43.9922C77.2321 43.9922 76.6444 43.8616 76.2308 43.6004C75.8281 43.3283 75.5777 42.8712 75.4798 42.229L75.0553 39.421C74.9574 38.8441 74.7723 38.4468 74.5002 38.2292C74.239 38.0006 73.8037 37.87 73.1942 37.8373V42.0331C73.1942 42.4467 73.2214 42.746 73.2758 42.931C73.3411 43.1161 73.4499 43.2412 73.6023 43.3065C73.7547 43.3718 74.005 43.4154 74.3533 43.4372V43.7637C73.722 43.731 72.8132 43.7147 71.6269 43.7147C70.3099 43.7147 69.3412 43.731 68.7208 43.7637V43.4372C69.0691 43.4154 69.3195 43.3718 69.4718 43.3065C69.6351 43.2412 69.7439 43.1161 69.7984 42.931C69.8528 42.746 69.88 42.4467 69.88 42.0331V33.9354C69.88 33.5218 69.8473 33.2225 69.782 33.0375C69.7276 32.8525 69.6242 32.7273 69.4718 32.662C69.3195 32.5967 69.0691 32.5532 68.7208 32.5314V32.2049C69.3412 32.2375 70.3099 32.2539 71.6269 32.2539C72.8023 32.2539 73.7111 32.2375 74.3533 32.2049V32.5314C74.005 32.5532 73.7492 32.5967 73.586 32.662C73.4336 32.7273 73.3302 32.8525 73.2758 33.0375C73.2214 33.2225 73.1942 33.5218 73.1942 33.9354V37.5761C73.6404 37.5435 74.0703 37.3857 74.4839 37.1027C74.8975 36.8197 75.3982 36.3462 75.9859 35.6823L76.541 35.0619C77.0199 34.5177 77.2593 34.028 77.2593 33.5926C77.2593 33.277 77.1342 33.0266 76.8838 32.8416C76.6335 32.6457 76.3124 32.5368 75.9206 32.5151V32.2049C76.8348 32.2375 77.7545 32.2539 78.6797 32.2539C79.3436 32.2539 79.8932 32.2375 80.3286 32.2049V32.5151C79.4143 32.7545 78.5219 33.3531 77.6511 34.3109L74.6635 37.6088C75.8498 37.685 76.7478 37.8863 77.3573 38.2128C77.9777 38.5394 78.364 39.0618 78.5164 39.7801L78.9899 42.0494C79.0661 42.4522 79.1586 42.7297 79.2674 42.8821C79.3871 43.0344 79.545 43.1106 79.7409 43.1106C79.9259 43.1106 80.0892 43.0399 80.2306 42.8984L80.4429 43.1106ZM93.9118 32.5314C93.5635 32.5532 93.3132 32.5967 93.1608 32.662C93.0084 32.7273 92.8996 32.8525 92.8343 33.0375C92.7799 33.2225 92.7527 33.5218 92.7527 33.9354V42.0331C92.7527 42.4467 92.7799 42.746 92.8343 42.931C92.8996 43.1161 93.0084 43.2412 93.1608 43.3065C93.3132 43.3718 93.5635 43.4154 93.9118 43.4372V43.7637C93.2914 43.731 92.3227 43.7147 91.0058 43.7147C89.8303 43.7147 88.9215 43.731 88.2793 43.7637V43.4372C88.6276 43.4154 88.878 43.3718 89.0303 43.3065C89.1827 43.2412 89.2861 43.1161 89.3405 42.931C89.4058 42.746 89.4385 42.4467 89.4385 42.0331V34.5232L85.4386 42.2943C85.4495 42.61 85.4876 42.8494 85.5529 43.0127C85.6182 43.1651 85.7271 43.2685 85.8794 43.3229C86.0427 43.3773 86.2821 43.4154 86.5978 43.4372V43.7637C85.9665 43.731 85.0577 43.7147 83.8713 43.7147C82.5544 43.7147 81.5857 43.731 80.9653 43.7637V43.4372C81.3136 43.4154 81.5639 43.3718 81.7163 43.3065C81.8687 43.2412 81.9721 43.1161 82.0265 42.931C82.0918 42.746 82.1245 42.4467 82.1245 42.0331V33.9354C82.1245 33.5218 82.0918 33.2225 82.0265 33.0375C81.9721 32.8525 81.8687 32.7273 81.7163 32.662C81.5639 32.5967 81.3136 32.5532 80.9653 32.5314V32.2049C81.5857 32.2375 82.5544 32.2539 83.8713 32.2539C85.0468 32.2539 85.9556 32.2375 86.5978 32.2049V32.5314C86.2495 32.5532 85.9992 32.5967 85.8468 32.662C85.6944 32.7273 85.5856 32.8525 85.5203 33.0375C85.4658 33.2225 85.4386 33.5218 85.4386 33.9354V41.478L89.4385 33.7232C89.4276 33.3858 89.3895 33.1409 89.3242 32.9885C89.2589 32.8253 89.1501 32.7164 88.9977 32.662C88.8453 32.5967 88.6059 32.5532 88.2793 32.5314V32.2049C88.9106 32.2375 89.8194 32.2539 91.0058 32.2539C92.3227 32.2539 93.2914 32.2375 93.9118 32.2049V32.5314ZM107.767 32.5314C107.418 32.5532 107.168 32.5967 107.016 32.662C106.863 32.7273 106.754 32.8525 106.689 33.0375C106.635 33.2225 106.607 33.5218 106.607 33.9354V42.0331C106.607 42.4467 106.635 42.746 106.689 42.931C106.754 43.1161 106.863 43.2412 107.016 43.3065C107.168 43.3718 107.418 43.4154 107.767 43.4372V43.7637C107.146 43.731 106.177 43.7147 104.861 43.7147C103.685 43.7147 102.776 43.731 102.134 43.7637V43.4372C102.482 43.4154 102.733 43.3718 102.885 43.3065C103.037 43.2412 103.141 43.1161 103.195 42.931C103.261 42.746 103.293 42.4467 103.293 42.0331V34.5232L99.2934 42.2943C99.3043 42.61 99.3424 42.8494 99.4077 43.0127C99.473 43.1651 99.5818 43.2685 99.7342 43.3229C99.8974 43.3773 100.137 43.4154 100.453 43.4372V43.7637C99.8212 43.731 98.9124 43.7147 97.7261 43.7147C96.4091 43.7147 95.4404 43.731 94.8201 43.7637V43.4372C95.1683 43.4154 95.4187 43.3718 95.5711 43.3065C95.7234 43.2412 95.8268 43.1161 95.8812 42.931C95.9465 42.746 95.9792 42.4467 95.9792 42.0331V33.9354C95.9792 33.5218 95.9465 33.2225 95.8812 33.0375C95.8268 32.8525 95.7234 32.7273 95.5711 32.662C95.4187 32.5967 95.1683 32.5532 94.8201 32.5314V32.2049C95.4404 32.2375 96.4091 32.2539 97.7261 32.2539C98.9015 32.2539 99.8104 32.2375 100.453 32.2049V32.5314C100.104 32.5532 99.8539 32.5967 99.7015 32.662C99.5491 32.7273 99.4403 32.8525 99.375 33.0375C99.3206 33.2225 99.2934 33.5218 99.2934 33.9354V41.478L103.293 33.7232C103.282 33.3858 103.244 33.1409 103.179 32.9885C103.114 32.8253 103.005 32.7164 102.852 32.662C102.7 32.5967 102.461 32.5532 102.134 32.5314V32.2049C102.765 32.2375 103.674 32.2539 104.861 32.2539C106.177 32.2539 107.146 32.2375 107.767 32.2049V32.5314ZM103.914 28.303C104.371 28.303 104.746 28.4227 105.04 28.6622C105.345 28.8907 105.497 29.1737 105.497 29.5111C105.497 29.7832 105.394 30.0281 105.187 30.2458C104.991 30.4526 104.724 30.6322 104.387 30.7845C104.039 30.9478 103.598 31.0784 103.065 31.1764C102.531 31.2743 101.944 31.3233 101.301 31.3233C100.659 31.3233 100.072 31.2743 99.5383 31.1764C99.0049 31.0784 98.5587 30.9478 98.1995 30.7845C97.873 30.643 97.6118 30.4635 97.4159 30.2458C97.22 30.0281 97.122 29.7832 97.122 29.5111C97.122 29.1737 97.269 28.8907 97.5628 28.6622C97.8567 28.4227 98.2322 28.303 98.6893 28.303C99.1464 28.303 99.5274 28.4227 99.8321 28.6622C100.137 28.8907 100.289 29.1846 100.289 29.5438C100.289 29.8485 100.175 30.1043 99.9464 30.3111C99.7178 30.5179 99.4294 30.6648 99.0811 30.7519C99.7777 30.9151 100.518 30.9968 101.301 30.9968C102.085 30.9968 102.82 30.9097 103.505 30.7356C103.146 30.6376 102.858 30.4907 102.64 30.2947C102.433 30.088 102.33 29.8376 102.33 29.5438C102.33 29.1846 102.477 28.8907 102.771 28.6622C103.076 28.4227 103.456 28.303 103.914 28.303ZM124.032 43.1106C123.705 43.4372 123.346 43.6657 122.954 43.7963C122.563 43.9269 122.105 43.9922 121.583 43.9922C120.821 43.9922 120.233 43.8616 119.82 43.6004C119.417 43.3283 119.167 42.8712 119.069 42.229L118.644 39.421C118.546 38.8441 118.361 38.4468 118.089 38.2292C117.828 38.0006 117.393 37.87 116.783 37.8373V42.0331C116.783 42.4467 116.81 42.746 116.865 42.931C116.93 43.1161 117.039 43.2412 117.191 43.3065C117.344 43.3718 117.594 43.4154 117.942 43.4372V43.7637C117.311 43.731 116.402 43.7147 115.216 43.7147C113.899 43.7147 112.93 43.731 112.31 43.7637V43.4372C112.658 43.4154 112.909 43.3718 113.061 43.3065C113.224 43.2412 113.333 43.1161 113.387 42.931C113.442 42.746 113.469 42.4467 113.469 42.0331V33.9354C113.469 33.5218 113.436 33.2225 113.371 33.0375C113.317 32.8525 113.213 32.7273 113.061 32.662C112.909 32.5967 112.658 32.5532 112.31 32.5314V32.2049C112.93 32.2375 113.899 32.2539 115.216 32.2539C116.391 32.2539 117.3 32.2375 117.942 32.2049V32.5314C117.594 32.5532 117.338 32.5967 117.175 32.662C117.023 32.7273 116.919 32.8525 116.865 33.0375C116.81 33.2225 116.783 33.5218 116.783 33.9354V37.5761C117.229 37.5435 117.659 37.3857 118.073 37.1027C118.487 36.8197 118.987 36.3462 119.575 35.6823L120.13 35.0619C120.609 34.5177 120.848 34.028 120.848 33.5926C120.848 33.277 120.723 33.0266 120.473 32.8416C120.223 32.6457 119.901 32.5368 119.51 32.5151V32.2049C120.424 32.2375 121.344 32.2539 122.269 32.2539C122.933 32.2539 123.482 32.2375 123.918 32.2049V32.5151C123.003 32.7545 122.111 33.3531 121.24 34.3109L118.253 37.6088C119.439 37.685 120.337 37.8863 120.946 38.2128C121.567 38.5394 121.953 39.0618 122.105 39.7801L122.579 42.0494C122.655 42.4522 122.748 42.7297 122.856 42.8821C122.976 43.0344 123.134 43.1106 123.33 43.1106C123.515 43.1106 123.678 43.0399 123.82 42.8984L124.032 43.1106ZM129.028 39.0944V41.8699C129.028 42.327 129.071 42.6589 129.158 42.8657C129.256 43.0725 129.425 43.214 129.664 43.2902C129.915 43.3555 130.307 43.3882 130.84 43.3882V43.7637C129.371 43.731 128.249 43.7147 127.477 43.7147C126.965 43.7147 126.252 43.7256 125.338 43.7473L124.554 43.7637V43.4372C124.903 43.4154 125.153 43.3718 125.305 43.3065C125.469 43.2412 125.577 43.1161 125.632 42.931C125.686 42.746 125.714 42.4467 125.714 42.0331V33.9354C125.714 33.5218 125.681 33.2225 125.616 33.0375C125.561 32.8525 125.458 32.7273 125.305 32.662C125.153 32.5967 124.903 32.5532 124.554 32.5314V32.2049C125.175 32.2375 126.111 32.2539 127.362 32.2539L129.24 32.2375C129.458 32.2267 129.708 32.2212 129.991 32.2212C131.602 32.2212 132.821 32.5151 133.648 33.1028C134.486 33.6797 134.905 34.4579 134.905 35.4374C134.905 36.036 134.742 36.6129 134.415 37.168C134.089 37.7122 133.534 38.1693 132.75 38.5394C131.966 38.9094 130.927 39.0944 129.632 39.0944H129.028ZM129.909 32.5314C129.659 32.5314 129.468 32.5695 129.338 32.6457C129.218 32.7219 129.137 32.8579 129.093 33.0538C129.049 33.2497 129.028 33.5436 129.028 33.9354V38.7679H129.468C130.23 38.7679 130.753 38.4849 131.036 37.919C131.33 37.353 131.477 36.5857 131.477 35.617C131.477 34.5613 131.357 33.7831 131.117 33.2824C130.878 32.7817 130.475 32.5314 129.909 32.5314ZM144.83 41.0209C144.83 42.1311 144.868 43.0453 144.944 43.7637C144.204 43.731 142.958 43.7147 141.206 43.7147C138.659 43.7147 136.754 43.731 135.491 43.7637V43.4372C135.84 43.4154 136.09 43.3718 136.242 43.3065C136.406 43.2412 136.515 43.1161 136.569 42.931C136.623 42.746 136.651 42.4467 136.651 42.0331V33.9354C136.651 33.5218 136.618 33.2225 136.553 33.0375C136.498 32.8525 136.395 32.7273 136.242 32.662C136.09 32.5967 135.84 32.5532 135.491 32.5314V32.2049C136.754 32.2375 138.659 32.2539 141.206 32.2539C142.806 32.2539 143.943 32.2375 144.618 32.2049C144.542 33.228 144.503 34.1422 144.503 34.9476C144.503 35.4483 144.52 35.8401 144.552 36.1231H144.177C143.981 34.8606 143.616 33.9572 143.083 33.413C142.55 32.8579 141.913 32.5804 141.173 32.5804H140.961C140.667 32.5804 140.449 32.6076 140.308 32.662C140.177 32.7056 140.085 32.7981 140.03 32.9396C139.987 33.0702 139.965 33.2933 139.965 33.6089V37.7884H140.128C140.694 37.7884 141.178 37.5652 141.581 37.119C141.984 36.6728 142.24 36.1775 142.348 35.6333H142.724C142.691 36.0905 142.675 36.602 142.675 37.168V37.9516C142.675 38.5067 142.708 39.2795 142.773 40.2699H142.397C142.299 39.6495 142.044 39.138 141.63 38.7353C141.227 38.3217 140.727 38.1149 140.128 38.1149H139.965V42.3596C139.965 42.6753 139.987 42.9038 140.03 43.0453C140.085 43.1759 140.177 43.2685 140.308 43.3229C140.449 43.3664 140.667 43.3882 140.961 43.3882H141.499C142.131 43.3882 142.729 43.0834 143.295 42.4739C143.861 41.8535 144.264 40.8685 144.503 39.5189H144.879C144.846 39.9107 144.83 40.4114 144.83 41.0209ZM160.95 32.5314C160.602 32.5532 160.346 32.5967 160.183 32.662C160.03 32.7273 159.927 32.8525 159.873 33.0375C159.818 33.2225 159.791 33.5218 159.791 33.9354V42.0331C159.791 42.4467 159.818 42.746 159.873 42.931C159.938 43.1161 160.047 43.2412 160.199 43.3065C160.351 43.3718 160.602 43.4154 160.95 43.4372V43.7637C160.286 43.731 159.323 43.7147 158.06 43.7147C156.743 43.7147 155.775 43.731 155.154 43.7637V43.4372C155.546 43.4154 155.829 43.3718 156.003 43.3065C156.188 43.2412 156.313 43.1161 156.379 42.931C156.444 42.746 156.477 42.4467 156.477 42.0331V33.6906L152.542 43.7473H152.281L147.677 33.2661V40.5638C147.677 41.3692 147.71 41.9515 147.775 42.3107C147.84 42.6589 147.982 42.9147 148.199 43.078C148.428 43.2412 148.804 43.361 149.326 43.4372V43.7637C148.88 43.731 148.27 43.7147 147.497 43.7147C146.921 43.7147 146.469 43.731 146.142 43.7637V43.4372C146.48 43.361 146.73 43.2467 146.893 43.0943C147.057 42.931 147.165 42.6862 147.22 42.3596C147.274 42.0331 147.302 41.5433 147.302 40.8903V33.9354C147.302 33.5218 147.269 33.2225 147.204 33.0375C147.149 32.8525 147.046 32.7273 146.893 32.662C146.741 32.5967 146.491 32.5532 146.142 32.5314V32.2049C146.469 32.2375 146.921 32.2539 147.497 32.2539C148.804 32.2539 149.93 32.2375 150.877 32.2049L153.963 39.1434L156.64 32.2539H158.06C159.323 32.2539 160.286 32.2375 160.95 32.2049V32.5314ZM173.143 32.5314C172.751 32.5532 172.463 32.5967 172.278 32.662C172.104 32.7273 171.984 32.8525 171.919 33.0375C171.853 33.2225 171.821 33.5218 171.821 33.9354V42.0331C171.821 42.4467 171.853 42.746 171.919 42.931C171.984 43.1161 172.104 43.2412 172.278 43.3065C172.463 43.3718 172.751 43.4154 173.143 43.4372V43.7637C172.49 43.731 171.478 43.7147 170.106 43.7147C168.833 43.7147 167.859 43.731 167.184 43.7637V43.4372C167.576 43.4154 167.859 43.3718 168.033 43.3065C168.218 43.2412 168.343 43.1161 168.408 42.931C168.474 42.746 168.506 42.4467 168.506 42.0331V33.9354C168.506 33.3695 168.43 32.994 168.278 32.8089C168.125 32.6239 167.87 32.5314 167.511 32.5314H167.462C167.168 32.5314 166.939 32.6294 166.776 32.8253C166.613 33.0212 166.509 33.3912 166.466 33.9354C166.433 34.2402 166.406 34.5341 166.384 34.817C166.373 35.1 166.357 35.3667 166.335 35.617C166.215 37.3585 166.068 38.7843 165.894 39.8944C165.731 41.0046 165.426 41.9678 164.98 42.7841C164.534 43.5895 163.892 43.9922 163.054 43.9922C162.477 43.9922 161.998 43.8235 161.617 43.4861C161.247 43.1378 161.062 42.7134 161.062 42.2127C161.062 41.7012 161.236 41.2876 161.584 40.9719C161.932 40.6563 162.368 40.4985 162.89 40.4985C163.337 40.4985 163.69 40.6073 163.951 40.825C164.213 41.0318 164.343 41.3257 164.343 41.7066C164.343 42.1855 164.18 42.5936 163.854 42.931C163.538 43.2576 163.135 43.4644 162.645 43.5514C162.732 43.6385 162.869 43.682 163.054 43.682C163.826 43.682 164.419 43.2195 164.833 42.2943C165.247 41.3692 165.53 40.2754 165.682 39.0128C165.834 37.7394 165.97 36.0469 166.09 33.9354C166.101 33.8484 166.106 33.7286 166.106 33.5763C166.106 33.2933 166.068 33.081 165.992 32.9396C165.916 32.7981 165.785 32.7001 165.6 32.6457C165.415 32.5913 165.138 32.5532 164.768 32.5314V32.2049C165.225 32.2375 165.785 32.2539 166.449 32.2539C166.613 32.2539 166.857 32.243 167.184 32.2212L167.886 32.2049L168.98 32.2212C169.481 32.243 169.894 32.2539 170.221 32.2539C171.516 32.2539 172.49 32.2375 173.143 32.2049V32.5314ZM179.04 36.8741C180.967 36.8741 182.327 37.1789 183.122 37.7884C183.916 38.3979 184.313 39.1978 184.313 40.1883C184.313 41.2767 183.894 42.142 183.056 42.7841C182.229 43.4263 181.016 43.7473 179.416 43.7473C179.111 43.7473 178.855 43.7419 178.648 43.731L176.673 43.7147C175.486 43.7147 174.583 43.731 173.963 43.7637V43.4372C174.311 43.4154 174.561 43.3718 174.714 43.3065C174.866 43.2412 174.969 43.1161 175.024 42.931C175.089 42.746 175.122 42.4467 175.122 42.0331V33.9354C175.122 33.5218 175.089 33.2225 175.024 33.0375C174.969 32.8525 174.866 32.7273 174.714 32.662C174.561 32.5967 174.311 32.5532 173.963 32.5314V32.2049C174.583 32.2375 175.552 32.2539 176.869 32.2539C178.044 32.2539 178.953 32.2375 179.595 32.2049V32.5314C179.247 32.5532 178.991 32.5967 178.828 32.662C178.675 32.7273 178.572 32.8525 178.518 33.0375C178.463 33.2225 178.436 33.5218 178.436 33.9354V36.8741H179.04ZM179.269 43.4372C179.856 43.4372 180.27 43.1977 180.509 42.7188C180.76 42.229 180.885 41.4726 180.885 40.4495C180.885 39.4264 180.743 38.6319 180.46 38.0659C180.177 37.4891 179.65 37.2006 178.877 37.2006H178.436V42.0331C178.436 42.5882 178.49 42.9637 178.599 43.1596C178.708 43.3446 178.931 43.4372 179.269 43.4372Z" fill="#D66744"/>
</svg>
