<?xml version="1.0" standalone="no"?>
<!DOCTYPE svg PUBLIC "-//W3C//DTD SVG 20010904//EN"
 "http://www.w3.org/TR/2001/REC-SVG-20010904/DTD/svg10.dtd">
<svg version="1.0" xmlns="http://www.w3.org/2000/svg"
 width="700.000000pt" height="700.000000pt" viewBox="0 0 700.000000 700.000000"
 preserveAspectRatio="xMidYMid meet">
<metadata>
Created by potrace 1.14, written by Peter Selinger 2001-2017
</metadata>
<g transform="translate(0.000000,700.000000) scale(0.100000,-0.100000)"
fill="#000000" stroke="none">
<path d="M2180 5685 l-1305 -654 0 -325 c0 -211 3 -327 10 -329 5 -2 153 -3
328 -3 l317 1 0 -1202 0 -1203 -328 0 -327 0 0 -438 0 -437 2623 -1 c1442 0
2623 2 2623 5 1 3 2 201 3 439 l1 432 -327 0 -328 0 0 1203 0 1202 325 0 c179
0 326 2 326 5 1 3 2 150 3 328 l1 324 -1308 654 c-719 360 -1313 654 -1320
653 -6 0 -599 -295 -1317 -654z m1425 -10 c138 -35 264 -151 310 -289 29 -85
24 -218 -11 -301 -89 -214 -329 -322 -546 -246 -212 74 -332 291 -282 510 36
160 166 288 329 327 52 12 148 12 200 -1z m-544 -1310 c1 -13 1 -2367 0 -2382
-1 -19 -651 -19 -652 0 0 6 -2 546 -2 1199 -2 1022 0 1188 12 1190 43 9 641 2
642 -7z m1531 -10 c2 -11 3 -551 2 -1200 l0 -1180 -327 -3 c-258 -2 -327 0
-328 10 -1 17 -1 2312 0 2358 l1 35 324 0 c317 0 325 0 328 -20z"/>
</g>
</svg>
